<svg width="174" height="174" viewBox="0 0 174 174" fill="none" xmlns="http://www.w3.org/2000/svg">
<path d="M111.977 24.6895L96.1648 40.1357" stroke="#F4F9F4" stroke-width="1.5" stroke-miterlimit="10" stroke-linecap="round" stroke-linejoin="round"/>
<path d="M89.2944 15.2159L89.2941 38.7942" stroke="#F4F9F4" stroke-width="1.5" stroke-miterlimit="10" stroke-linecap="round" stroke-linejoin="round"/>
<path d="M73.967 29.6481L80.6741 41.5169" stroke="#F4F9F4" stroke-width="1.5" stroke-miterlimit="10" stroke-linecap="round" stroke-linejoin="round"/>
<path d="M160.804 131.912C154.897 127.26 138.727 113.127 142.98 98.0629C148.297 79.233 158.716 77.7604 155.164 73.9163C146.525 64.5672 121.443 93.3765 126.365 97.8414C130.029 101.164 137.22 83.442 138.652 64.5672C140.277 43.1371 133.503 49.9913 132.149 53.0927C128.014 62.5626 124.593 74.8024 127.252 75.467C129.91 76.1316 135.418 48.3957 129.569 44.8512C122.259 40.4207 113.398 74.3145 114.948 79.8526C116.499 85.3908 125.581 47.9526 119.822 45.9589C114.062 43.9651 103.991 74.5809 107.314 75.467C110.637 76.3531 111.625 52.8262 108.302 50.3894C104.979 47.9526 91.2445 85.6124 96.5611 105.771C100.814 121.899 119.6 138.484 128.462 144.76" stroke="#F4F9F4" stroke-width="1.5" stroke-linecap="round" stroke-linejoin="round"/>
<path d="M19.9026 138.273C26.6173 134.889 41.4553 123.311 40.2832 107.702C38.8181 88.1907 25.404 79.084 29.6499 76.0233C39.9764 68.5795 54.2395 95.2963 48.7013 96.8089C43.9299 98.112 48.3481 85.9165 50.6996 67.1341C53.3694 45.8089 58.6447 53.8736 59.355 57.1823C61.5238 67.2854 62.0924 80.9959 59.355 81.1185C56.6176 81.241 57.9937 49.7566 64.4302 47.4462C72.4758 44.5583 72.1468 84.8605 69.5255 89.9796C66.9042 95.0987 68.8002 51.799 74.8414 50.9907C80.8826 50.1824 81.3486 96.6014 77.9158 96.8089C74.4831 97.0163 80.0099 65.788 83.7511 64.0608C87.4923 62.3336 92.9736 97.1882 83.7534 115.887C76.3773 130.846 63.286 148.062 53.3534 152.45" stroke="#F4F9F4" stroke-width="1.5" stroke-linecap="round" stroke-linejoin="round"/>
</svg>
