<svg width="105" height="67" viewBox="0 0 105 67" fill="none" xmlns="http://www.w3.org/2000/svg">
<ellipse cx="29.3296" cy="32.9867" rx="28.481" ry="32.9311" transform="rotate(13.0376 29.3296 32.9867)" fill="#0B841C"/>
<path d="M46.3889 50.5762C42.2998 43.5029 37.5044 39.9409 35.6178 39.0441C37.7141 41.7491 40.8967 47.7284 36.8564 50.0063C31.8061 52.8537 32.6368 48.0951 30.4343 49.3421C28.2319 50.5891 26.9643 53.1685 24.2477 50.004C21.5312 46.8394 31.9485 31.9747 34.7838 27.1022C37.6192 22.2297 43.4263 21.7347 45.2835 24.8062C47.1407 27.8778 44.5121 29.2248 44.4941 30.3311C44.4761 31.4373 46.5778 33.4426 45.8676 34.8356C45.1574 36.2287 40.733 38.8357 32.9534 35.2465C25.1739 31.6572 19.9438 27.174 18.7681 21.5365C17.5924 15.899 21.4615 15.4712 23.1677 16.0637C24.8739 16.6562 26.0137 17.149 28.2953 15.4488C30.5769 13.7487 32.6103 14.8076 33.315 17.7929C34.0197 20.7782 33.9099 30.1015 27.2791 35.6483C20.6484 41.1952 14.7764 42.73 13.4963 42.0374C12.2162 41.3447 11.6625 40.8385 12.2774 38.3192C12.8923 35.7999 9.83216 37.9469 9.28576 34.0551C8.73936 30.1634 13.4428 26.9629 19.5412 29.1467" stroke="#F4F9F4" stroke-width="0.601674"/>
<path d="M50.7052 36.5031C52.7405 28.153 51.1955 8.03604 33.7517 4.82522C8.10666 0.104806 -11.8394 46.6915 21.1131 60.8971" stroke="#F4F9F4" stroke-width="0.60119" stroke-linecap="round"/>
<mask id="mask0_903_2086" style="mask-type:alpha" maskUnits="userSpaceOnUse" x="35" y="0" width="67" height="67">
<circle cx="68.8999" cy="33.0717" r="32.9311" fill="#0B841C"/>
</mask>
<g mask="url(#mask0_903_2086)">
<rect x="30.8125" y="-14.4893" width="75.8305" height="114.28" fill="#EAE024"/>
<path d="M40.3141 24.098C48.8373 0.953444 82.1037 -0.838623 92.9284 21.3811C98.7139 33.2571 94.1985 48.6402 80.2044 53.9031C66.212 59.1653 53.6928 53.6443 48.4335 45.2366C33.3135 21.0651 67.1157 -0.476143 86.0031 18.926" stroke="#152026" stroke-width="0.6" stroke-linecap="round"/>
<path d="M56 34.4667L66.7143 41L81 27" stroke="#152026" stroke-width="0.6" stroke-linecap="round"/>
</g>
</svg>
