<svg width="108" height="67" viewBox="0 0 108 67" fill="none" xmlns="http://www.w3.org/2000/svg">
<ellipse cx="29.3296" cy="32.9867" rx="28.481" ry="32.9311" transform="rotate(13.0376 29.3296 32.9867)" fill="#0B841C"/>
<path d="M46.3889 50.5762C42.2998 43.5029 37.5044 39.9409 35.6178 39.0441C37.7141 41.7491 40.8967 47.7284 36.8564 50.0063C31.8061 52.8537 32.6368 48.0951 30.4343 49.3421C28.2319 50.5891 26.9643 53.1685 24.2477 50.004C21.5312 46.8394 31.9485 31.9747 34.7838 27.1022C37.6192 22.2297 43.4263 21.7347 45.2835 24.8062C47.1407 27.8778 44.5121 29.2248 44.4941 30.3311C44.4761 31.4373 46.5778 33.4426 45.8676 34.8356C45.1574 36.2287 40.733 38.8357 32.9534 35.2465C25.1739 31.6572 19.9438 27.174 18.7681 21.5365C17.5924 15.899 21.4615 15.4712 23.1677 16.0637C24.8739 16.6562 26.0137 17.149 28.2953 15.4488C30.5769 13.7487 32.6103 14.8076 33.315 17.7929C34.0197 20.7782 33.9099 30.1015 27.2791 35.6483C20.6484 41.1952 14.7764 42.73 13.4963 42.0374C12.2162 41.3447 11.6625 40.8385 12.2774 38.3192C12.8923 35.7999 9.83216 37.9469 9.28576 34.0551C8.73936 30.1634 13.4428 26.9629 19.5412 29.1467" stroke="#F4F9F4" stroke-width="0.601674"/>
<path d="M50.7052 36.5031C52.7405 28.153 51.1955 8.03604 33.7517 4.82522C8.10666 0.104806 -11.8394 46.6915 21.1131 60.8971" stroke="#F4F9F4" stroke-width="0.60119" stroke-linecap="round"/>
<mask id="mask0_903_2124" style="mask-type:alpha" maskUnits="userSpaceOnUse" x="35" y="0" width="67" height="67">
<circle cx="68.8999" cy="33.0717" r="32.9311" fill="#0B841C"/>
</mask>
<g mask="url(#mask0_903_2124)">
<rect x="30.8125" y="-14.4893" width="75.8305" height="114.28" fill="#EAE024"/>
<path d="M48.9226 32.1241C58.1921 30.5133 62.637 25.0668 64.0962 23.2832C68.507 17.8917 68.6673 10.4188 69.9514 9.90664C71.2244 9.39883 73.9046 13.1667 72.3588 23.2615C72.3391 23.3903 72.4504 23.5057 72.5794 23.4876C81.8149 22.1939 88.0841 22.7314 87.448 25.4294C86.4911 29.4878 69.2113 35.1935 68.0614 33.2578C67.2442 31.8822 72.3864 28.1121 78.7669 26.5697" stroke="#152026" stroke-width="0.601674" stroke-linecap="round"/>
<path d="M87.0872 28.0004C94.1239 33.7874 70.2348 39.0949 70.188 37.9468C70.1412 36.7987 88.2711 30.8593 89.7517 34.5472C91.7866 39.6157 69.6183 44.7819 69.8614 43.3703C70.1275 41.8259 88.2881 37.5473 88.4315 39.6903C88.5749 41.8334 76.0051 50.1728 55.6904 49.939" stroke="#152026" stroke-width="0.601674" stroke-linecap="round"/>
<path d="M93.4143 46.9524C90.6486 51.8411 86.4786 55.7868 81.4425 58.2804C76.4063 60.7739 70.7352 61.7007 65.1611 60.9412C59.5869 60.1816 54.3657 57.7705 50.1715 54.019C45.9772 50.2675 43.0024 45.3479 41.631 39.8953C40.2597 34.4427 40.5547 28.7074 42.4778 23.4296C44.401 18.1519 47.8641 13.5739 52.4202 10.2865C56.9762 6.99916 62.4162 5.15331 68.0379 4.98734C73.6596 4.82136 79.2049 6.34288 83.9581 9.35557" stroke="#152026" stroke-width="0.601674"/>
</g>
</svg>
