<svg width="105" height="67" viewBox="0 0 105 67" fill="none" xmlns="http://www.w3.org/2000/svg">
<ellipse cx="29.3296" cy="32.9867" rx="28.481" ry="32.9311" transform="rotate(13.0376 29.3296 32.9867)" fill="#0B841C"/>
<path d="M46.3889 50.5762C42.2998 43.5029 37.5044 39.9409 35.6178 39.0441C37.7141 41.7491 40.8967 47.7284 36.8564 50.0063C31.8061 52.8537 32.6368 48.0951 30.4343 49.3421C28.2319 50.5891 26.9643 53.1685 24.2477 50.004C21.5312 46.8394 31.9485 31.9747 34.7838 27.1022C37.6192 22.2297 43.4263 21.7347 45.2835 24.8062C47.1407 27.8778 44.5121 29.2248 44.4941 30.3311C44.4761 31.4373 46.5778 33.4426 45.8676 34.8356C45.1574 36.2287 40.733 38.8357 32.9534 35.2465C25.1739 31.6572 19.9438 27.174 18.7681 21.5365C17.5924 15.899 21.4615 15.4712 23.1677 16.0637C24.8739 16.6562 26.0137 17.149 28.2953 15.4488C30.5769 13.7487 32.6103 14.8076 33.315 17.7929C34.0197 20.7782 33.9099 30.1015 27.2791 35.6483C20.6484 41.1952 14.7764 42.73 13.4963 42.0374C12.2162 41.3447 11.6625 40.8385 12.2774 38.3192C12.8923 35.7999 9.83216 37.9469 9.28576 34.0551C8.73936 30.1634 13.4428 26.9629 19.5412 29.1467" stroke="#F4F9F4" stroke-width="0.601674"/>
<path d="M50.7052 36.5031C52.7405 28.153 51.1955 8.03604 33.7517 4.82522C8.10666 0.104806 -11.8394 46.6915 21.1131 60.8971" stroke="#F4F9F4" stroke-width="0.60119" stroke-linecap="round"/>
<mask id="mask0_903_2103" style="mask-type:alpha" maskUnits="userSpaceOnUse" x="35" y="0" width="67" height="67">
<circle cx="68.8999" cy="33.0717" r="32.9311" fill="#0B841C"/>
</mask>
<g mask="url(#mask0_903_2103)">
<rect x="30.8125" y="-14.4893" width="75.8305" height="114.28" fill="#EAE024"/>
<path d="M93.4143 46.9524C90.6486 51.8411 86.4786 55.7868 81.4425 58.2804C76.4063 60.7739 70.7352 61.7007 65.1611 60.9412C59.5869 60.1816 54.3657 57.7705 50.1715 54.019C45.9772 50.2675 43.0024 45.3479 41.631 39.8953C40.2597 34.4427 40.5547 28.7074 42.4778 23.4296C44.401 18.1519 47.8641 13.5739 52.4202 10.2865C56.9762 6.99916 62.4162 5.15331 68.0379 4.98734C73.6596 4.82136 79.2049 6.34288 83.9581 9.35557" stroke="#152026" stroke-width="0.601674"/>
</g>
<path d="M70.3658 24.7285L68.9052 17.337C68.6533 16.0621 67.4814 15.1715 66.1905 15.321C63.234 15.6633 60.2173 16.259 56.2921 17.7645C55.191 18.1868 54.5653 19.3422 54.7686 20.5039C56.5219 30.519 58.3083 38.5308 59.3764 44.5225C59.5647 45.5788 60.3805 46.4282 61.447 46.5471C64.9921 46.9425 68.0315 46.474 70.3658 45.7479" stroke="#152026" stroke-width="0.6" stroke-linecap="round"/>
<path d="M98.6194 42.5026C98.7097 42.6397 98.669 42.8242 98.5284 42.9145C98.3878 43.0048 98.2006 42.9669 98.1103 42.8297L98.6194 42.5026ZM77.378 22.8696L77.5327 22.6123L77.378 22.8696ZM81.4226 31.8591L81.4549 32.1545L81.4226 31.8591ZM64.5568 27.8719L64.5146 27.5779L64.5568 27.8719ZM76.4099 43.3885L76.5438 43.1203C76.6926 43.1908 76.7545 43.3666 76.6826 43.5143C76.6107 43.6621 76.4318 43.7267 76.2815 43.6592L76.4099 43.3885ZM65.8725 42.6661L66.1569 42.7646L65.8725 42.6661ZM83.1597 50.3967C83.3039 50.4781 83.3523 50.6597 83.2679 50.8024C83.1834 50.945 82.9981 50.9947 82.8538 50.9133L83.1597 50.3967ZM98.1103 42.8297C95.7399 39.2309 94.3607 36.5261 91.6448 33.5948C88.9359 30.671 84.8944 27.5251 77.2234 23.1269L77.5327 22.6123C85.2277 27.0242 89.3274 30.2052 92.0943 33.1916C94.8541 36.1704 96.2853 38.9589 98.6194 42.5026L98.1103 42.8297ZM77.2234 23.1269C76.0378 22.4472 75.1771 22.1015 74.5829 21.9939C73.984 21.8855 73.7591 22.0296 73.6658 22.1804C73.5433 22.3786 73.5207 22.761 73.682 23.349C73.8377 23.9167 74.1442 24.6021 74.5628 25.3384C75.3993 26.8099 76.6572 28.4392 77.9513 29.6676C78.5984 30.2819 79.2464 30.7881 79.8474 31.1247C80.4552 31.4651 80.9788 31.6118 81.3902 31.5638L81.4549 32.1545C80.8552 32.2244 80.1953 32.0074 79.5434 31.6423C78.8848 31.2734 78.197 30.7324 77.5283 30.0977C76.191 28.8283 74.8979 27.153 74.0337 25.6329C73.602 24.8735 73.2708 24.1414 73.0975 23.5098C72.9299 22.8986 72.8872 22.3001 73.1496 21.8757C73.4414 21.4038 74.0065 21.2835 74.699 21.4089C75.3961 21.5352 76.3281 21.9217 77.5327 22.6123L77.2234 23.1269ZM81.3902 31.5638C81.5347 31.547 81.6027 31.5166 81.627 31.5002C81.6373 31.4933 81.6204 31.5065 81.6199 31.5266C81.6199 31.528 81.6203 31.5184 81.6117 31.4952C81.6031 31.4719 81.5871 31.4398 81.5595 31.3987C81.5037 31.3157 81.4115 31.2127 81.2759 31.0931C80.7282 30.6101 79.6175 29.9813 78.0512 29.4041C74.9307 28.2541 70.0968 27.3439 64.599 28.1659L64.5146 27.5779C70.1271 26.7388 75.0651 27.6661 78.2693 28.8469C79.8654 29.4351 81.0553 30.095 81.6829 30.6484C81.8411 30.788 81.9724 30.9284 82.0656 31.067C82.156 31.2015 82.2289 31.3615 82.2249 31.5334C82.2205 31.7261 82.121 31.8844 81.966 31.9891C81.8251 32.0843 81.6452 32.1323 81.4549 32.1545L81.3902 31.5638ZM64.599 28.1659C63.1665 28.3801 62.3058 28.6267 61.8649 28.8728C61.6433 28.9965 61.5772 29.093 61.5607 29.1391C61.5516 29.1649 61.5424 29.2152 61.6198 29.3191C61.7018 29.4291 61.8563 29.5614 62.0974 29.7094C62.3345 29.855 62.637 30.0048 62.9955 30.1562C63.7122 30.4589 64.6296 30.7586 65.643 31.0398C67.6688 31.6019 70.0499 32.0822 71.9134 32.3629C72.8462 32.5034 73.6413 32.5927 74.1938 32.6182C74.4734 32.6312 74.6744 32.6269 74.7959 32.6099C74.8612 32.6007 74.8744 32.5916 74.8623 32.5981C74.8545 32.6022 74.8218 32.6207 74.7929 32.6638C74.7589 32.7144 74.7453 32.7768 74.755 32.8357L75.3525 32.7346C75.367 32.8229 75.3473 32.9123 75.2969 32.9875C75.2514 33.0551 75.1918 33.0958 75.147 33.1198C75.0609 33.1658 74.96 33.1867 74.8745 33.1987C74.6944 33.2239 74.447 33.2257 74.1586 33.2124C73.5752 33.1854 72.7562 33.0926 71.8152 32.9508C69.9311 32.667 67.5255 32.1819 65.4726 31.6123C64.4466 31.3277 63.5016 31.02 62.7513 30.7031C62.3762 30.5447 62.0441 30.3816 61.7726 30.2149C61.5051 30.0506 61.2772 29.8713 61.1301 29.6739C60.9786 29.4704 60.8939 29.2176 60.9898 28.9482C61.0786 28.6991 61.2983 28.5083 61.5706 28.3564C62.1175 28.0512 63.0767 27.7929 64.5146 27.5779L64.599 28.1659ZM74.755 32.8357C74.7616 32.8759 74.7785 32.8914 74.7694 32.8804C74.7618 32.8712 74.7429 32.8521 74.7055 32.8241C74.6306 32.7681 74.5121 32.6991 74.3464 32.62C74.0173 32.4627 73.5439 32.2848 72.9657 32.1013C71.8118 31.735 70.2738 31.3569 68.7148 31.0813C67.153 30.8052 65.5871 30.6352 64.3723 30.6777C63.7631 30.699 63.2624 30.7733 62.9002 30.9027C62.5341 31.0335 62.3661 31.1984 62.3111 31.3663L61.7352 31.1899C61.8744 30.7649 62.2543 30.5029 62.6991 30.344C63.1478 30.1837 63.7209 30.1056 64.3576 30.0833C65.6347 30.0386 67.2489 30.2167 68.8283 30.4959C70.4105 30.7755 71.9749 31.1597 73.1575 31.5351C73.7475 31.7223 74.2508 31.91 74.616 32.0845C74.7975 32.1712 74.9556 32.2597 75.0753 32.3492C75.1352 32.394 75.1931 32.4447 75.2404 32.5018C75.2862 32.5571 75.3362 32.6354 75.3525 32.7346L74.755 32.8357ZM62.3111 31.3663C62.2644 31.5091 62.3135 31.7509 62.6208 32.1206C62.9155 32.4752 63.3899 32.8757 64.0043 33.3007C65.2292 34.1482 66.9501 35.0527 68.7206 35.8452C70.4899 36.6372 72.2938 37.3106 73.6793 37.7002C74.3746 37.8957 74.9502 38.0156 75.358 38.0473C75.5644 38.0633 75.7058 38.0548 75.7913 38.0343C75.8817 38.0125 75.8406 37.997 75.8205 38.054L76.3921 38.2431C76.3117 38.4713 76.1017 38.5703 75.9289 38.6119C75.7511 38.6547 75.535 38.6582 75.3036 38.6402C74.8358 38.6038 74.215 38.4713 73.5068 38.2722C72.0852 37.8724 70.2528 37.1873 68.4646 36.3869C66.6776 35.587 64.9197 34.6653 63.6522 33.7883C63.0203 33.3512 62.4952 32.9148 62.1504 32.4999C61.8181 32.1002 61.5879 31.6399 61.7352 31.1899L62.3111 31.3663ZM75.8205 38.054C75.8084 38.0886 75.8335 38.0864 75.7884 38.0145C75.7445 37.9445 75.6577 37.8494 75.5147 37.732C75.231 37.4993 74.7852 37.2269 74.2134 36.935C73.0742 36.3534 71.4892 35.7219 69.8468 35.1973C68.2033 34.6724 66.519 34.26 65.1806 34.1095C64.5095 34.0341 63.9429 34.0266 63.5182 34.0954C63.0803 34.1663 62.8719 34.3044 62.7936 34.4449L62.2635 34.1638C62.4818 33.772 62.9351 33.5881 63.4264 33.5086C63.9309 33.4269 64.5609 33.4405 65.256 33.5186C66.65 33.6753 68.3766 34.1003 70.0396 34.6314C71.7037 35.1629 73.321 35.8061 74.497 36.4065C75.0828 36.7055 75.5729 37.0008 75.9055 37.2737C76.0707 37.4091 76.2122 37.5512 76.3044 37.6981C76.3954 37.843 76.4646 38.0373 76.3921 38.2431L75.8205 38.054ZM62.7936 34.4449C62.7902 34.4511 62.765 34.5039 62.8232 34.6536C62.8803 34.8004 63.0027 34.9978 63.2142 35.2455C63.6356 35.7391 64.3645 36.3801 65.4564 37.1523C67.6363 38.6939 71.2159 40.7257 76.5383 43.1178L76.2815 43.6592C70.9396 41.2582 67.3221 39.2083 65.0993 37.6364C63.9897 36.8517 63.2158 36.1779 62.7488 35.6308C62.5161 35.3583 62.348 35.1038 62.2576 34.8713C62.1683 34.6417 62.1387 34.3879 62.2635 34.1638L62.7936 34.4449ZM76.276 43.6566C74.1557 42.652 71.7235 42.0315 69.749 41.8838C68.7601 41.8099 67.9045 41.856 67.267 42.0204C66.6183 42.1876 66.2708 42.4554 66.1569 42.7646L65.5881 42.5676C65.8058 41.9769 66.403 41.6299 67.1196 41.4452C67.8473 41.2575 68.7772 41.2141 69.8016 41.2907C71.8535 41.4442 74.3584 42.0848 76.5438 43.1203L76.276 43.6566ZM66.1569 42.7646C66.1776 42.7083 66.1492 42.6749 66.1635 42.6962C66.1813 42.7229 66.228 42.7728 66.3274 42.8441C66.5234 42.9849 66.8462 43.1547 67.2965 43.3577C68.1926 43.7618 69.5133 44.2624 71.1365 44.894C74.3723 46.153 78.7621 47.9143 83.1597 50.3967L82.8538 50.9133C78.496 48.4533 74.1401 46.7049 70.9083 45.4474C69.2978 44.8207 67.9541 44.3114 67.0391 43.8988C66.5838 43.6936 66.2144 43.5035 65.9668 43.3258C65.8444 43.2379 65.7315 43.139 65.6563 43.0263C65.5775 42.9083 65.5228 42.7451 65.5881 42.5676L66.1569 42.7646Z" fill="#152026"/>
<path d="M55.4531 23.4275L66.2941 20.917" stroke="#152026" stroke-width="0.6" stroke-linecap="round"/>
</svg>
