<svg width="103" height="71" viewBox="0 0 103 71" fill="none" xmlns="http://www.w3.org/2000/svg">
<path d="M32.9814 21.7834H92.1833C93.8377 21.7834 95.1789 23.1246 95.1789 24.7791V44.4813M23.7441 43.0411V47.1313C23.7441 48.7857 25.0853 50.1269 26.7398 50.1269H28.4013C29.2505 50.1269 30.0598 50.4874 30.6279 51.1186L33.8833 54.7356L37.0208 51.1499C37.5896 50.4998 38.4114 50.1269 39.2752 50.1269H60.7289" stroke="#F4F9F4" stroke-width="0.691304" stroke-linecap="round" stroke-linejoin="round"/>
<path d="M36.6509 24.3181H88.4987C90.1531 24.3181 91.4943 25.6593 91.4943 27.3138V37.6833M39.9922 47.3616H68.9117" stroke="#F4F9F4" stroke-width="0.691304" stroke-linecap="round"/>
<path d="M40.0294 10.6168C39.4221 12.7248 40.0421 13.7449 42.0833 14.3329C40.0103 13.7357 38.9631 14.3182 38.3672 16.3868C38.9563 14.3419 38.3889 13.2687 36.3198 12.6726C38.4283 13.28 39.3905 12.7962 40.0294 10.6168Z" stroke="#F4F9F4" stroke-width="0.691304" stroke-miterlimit="10" stroke-linecap="round" stroke-linejoin="round"/>
<path d="M42.0605 14.3303L42.9953 14.5996" stroke="#F4F9F4" stroke-width="0.691304" stroke-miterlimit="10" stroke-linecap="round" stroke-linejoin="round"/>
<path d="M35.4121 12.416L36.3469 12.6853" stroke="#F4F9F4" stroke-width="0.691304" stroke-miterlimit="10" stroke-linecap="round" stroke-linejoin="round"/>
<path d="M38.3813 16.363L38.1121 17.2978" stroke="#F4F9F4" stroke-width="0.691304" stroke-miterlimit="10" stroke-linecap="round" stroke-linejoin="round"/>
<path d="M40.2979 9.71802L40.0286 10.6528" stroke="#F4F9F4" stroke-width="0.691304" stroke-miterlimit="10" stroke-linecap="round" stroke-linejoin="round"/>
<path d="M48.5698 1.00254C50.5382 4.80803 58.2655 12.7409 67.2047 13.0751C72.3665 13.7312 82.4274 12.6289 81.3768 2.97089C80.9831 -2.27806 71.7975 -11.4637 61.6933 -12.7759C47.9143 -14.5654 43.5571 -5.82105 45.6829 1.00254C48.1765 9.00706 57.3629 15.1747 67.2047 16.2245C68.9977 16.4869 73.3186 16.4869 76.258 14.3873" stroke="#F4F9F4" stroke-width="0.691304" stroke-linecap="round"/>
<path d="M67.7865 5.73096L58.2229 -4.52193C58.7026 -5.25087 60.4222 -6.47408 61.9571 -7.00216C64.4509 -7.86011 68.0162 -5.22268 66.8125 -1.49075C65.8495 1.49479 62.971 2.53491 61.9572 3.10205M63.9 5.5841L68.3876 1.78981" stroke="#F4F9F4" stroke-width="0.691304" stroke-linecap="round"/>
<path d="M97.8555 63.2161C89.7196 75.2886 71.6104 71.6144 66.3619 65.8405C61.9011 60.9333 61.1256 50.6078 72.2701 45.3696C80.4426 41.5285 90.6384 43.4013 94.4925 48.8227C101.926 59.2794 91.8192 67.284 84.4709 68.5963C79.8778 68.9899 73.9767 68.5963 69.7137 65.0207" stroke="#F4F9F4" stroke-width="0.691304" stroke-linecap="round"/>
<path d="M84.6063 61.6328L75.0427 51.3799C75.5224 50.651 77.2421 49.4278 78.777 48.8997C81.2707 48.0417 84.836 50.6792 83.6323 54.4111C82.6694 57.3966 79.7908 58.4368 78.777 59.0039M80.7198 61.486L85.2074 57.6917" stroke="#F4F9F4" stroke-width="0.691304" stroke-linecap="round"/>
<path d="M20.9884 19.967C17.938 21.385 11.4439 28.9089 10.2026 35.4393C9.40072 39.6576 8.85952 47.6179 16.3753 47.2698C20.4498 47.2267 28.0664 40.1499 29.6575 31.8942C31.8273 20.6359 25.3263 16.5767 19.937 17.9627C13.6152 19.5884 8.32838 26.8276 6.95487 34.8812" stroke="#F4F9F4" stroke-width="0.691304" stroke-linecap="round"/>
<path d="M17.3152 37.8002L21.2256 27.9678C21.8777 28.06 23.267 28.8387 24.1224 29.7156C25.5122 31.1402 24.8628 34.4236 21.9283 34.8061C19.5807 35.1122 17.9425 33.4837 17.2285 32.9749M16.1617 35.1011L20.1981 36.939" stroke="#F4F9F4" stroke-width="0.691304" stroke-linecap="round" stroke-linejoin="round"/>
<path d="M36.6479 33.5359V38.8359" stroke="#F4F9F4" stroke-width="0.691304" stroke-linecap="round"/>
<path d="M39.1855 36.0706L33.8855 36.0706" stroke="#F4F9F4" stroke-width="0.691304" stroke-linecap="round"/>
<path d="M43.827 35.4086C46.3267 33.3203 46.2115 32.3986 46.7281 30.0761C46.7699 29.9404 46.9731 29.9776 46.9715 30.1186L46.8697 42.1273" stroke="#F4F9F4" stroke-width="0.691304" stroke-miterlimit="10" stroke-linecap="round"/>
<path d="M55.9973 39.7013C56.7744 38.1749 57.4971 36.0781 57.2772 33.3606C57.1352 31.6052 56.3889 29.0829 53.8881 29.9045C52.5182 30.2918 50.9897 33.5817 51.2603 37.0192C51.6294 41.7069 54.2189 42.7354 55.9009 41.693C57.8741 40.4703 58.9493 37.1025 58.625 33.7654" stroke="#F4F9F4" stroke-width="0.691304" stroke-linecap="round"/>
<path d="M66.5974 39.7013C67.3745 38.1749 68.0972 36.0781 67.8773 33.3606C67.7353 31.6052 66.989 29.0829 64.4882 29.9045C63.1183 30.2918 61.5898 33.5817 61.8604 37.0192C62.2295 41.7069 64.819 42.7354 66.501 41.693C67.5551 41.0398 68.5642 39.0811 68.7946 36.4311" stroke="#F4F9F4" stroke-width="0.691304" stroke-linecap="round"/>
<path d="M76.612 39.7013C77.3891 38.1749 78.1119 36.0781 77.892 33.3606C77.7499 31.6052 77.0036 29.0829 74.5029 29.9045C73.1329 30.2918 71.6044 33.5817 71.8751 37.0192C72.2442 41.7069 74.8336 42.7354 76.5157 41.693C78.4888 40.4703 79.564 37.1025 79.2398 33.7654" stroke="#F4F9F4" stroke-width="0.691304" stroke-linecap="round"/>
</svg>
