<svg width="190" height="47" viewBox="0 0 190 47" fill="none" xmlns="http://www.w3.org/2000/svg">
<g clip-path="url(#clip0_923_3811)">
<path d="M138.344 2.30469C135.041 2.30469 132.837 4.43792 132.824 7.75699C132.824 10.9794 135.079 13.1835 138.331 13.1739C141.521 13.1739 143.664 10.9794 143.667 7.74088C143.67 4.50237 141.544 2.31113 138.344 2.30469Z" fill="#152026"/>
<path d="M177.966 15.323C177.025 18.481 176.088 21.6164 175.153 24.755H174.415L171.354 15.2972C171.333 15.2287 171.29 15.1691 171.232 15.1276C171.174 15.0862 171.103 15.0654 171.032 15.0684H159.647C159.601 15.0689 159.555 15.0593 159.512 15.0404C159.47 15.0215 159.432 14.9936 159.402 14.9587C159.371 14.9238 159.348 14.8828 159.335 14.8383C159.322 14.7938 159.318 14.747 159.325 14.7011C159.447 13.4572 160.053 12.7 161.091 12.5421C161.572 12.4755 162.061 12.4896 162.538 12.584C163.083 12.7055 163.62 12.8572 164.149 13.0383C164.19 13.0523 164.233 13.0578 164.276 13.0546C164.32 13.0514 164.362 13.0395 164.4 13.0197C164.439 12.9998 164.473 12.9724 164.5 12.9391C164.528 12.9057 164.549 12.8672 164.561 12.8257L166.817 6.09405C166.832 6.05247 166.839 6.00813 166.837 5.96382C166.834 5.91952 166.823 5.87619 166.803 5.83656C166.783 5.79693 166.755 5.76185 166.721 5.73352C166.686 5.70519 166.647 5.68421 166.604 5.67192C166.089 5.50113 165.067 5.18534 164.523 5.05966C162.048 4.44964 159.472 4.37275 156.966 4.83409C152.564 5.68159 149.648 8.62042 148.804 12.9964C148.688 13.5958 148.61 14.2048 148.52 14.8429C148.511 14.9221 148.474 14.9952 148.414 15.0481C148.355 15.1011 148.277 15.1302 148.198 15.1297H145.826C145.741 15.1297 145.659 15.1636 145.598 15.2241C145.538 15.2845 145.504 15.3664 145.504 15.4519V21.9547C145.504 22.0402 145.538 22.1221 145.598 22.1826C145.659 22.243 145.741 22.277 145.826 22.277H148.198C148.283 22.277 148.365 22.3109 148.426 22.3713C148.486 22.4318 148.52 22.5137 148.52 22.5992V37.1C148.52 37.1855 148.554 37.2674 148.614 37.3279C148.675 37.3883 148.757 37.4223 148.842 37.4223H158.922C159.007 37.4223 159.089 37.3883 159.15 37.3279C159.21 37.2674 159.244 37.1855 159.244 37.1V22.5992C159.244 22.5137 159.278 22.4318 159.339 22.3713C159.399 22.3109 159.481 22.277 159.566 22.277H162.699C162.76 22.2756 162.821 22.2919 162.873 22.3239C162.926 22.3558 162.968 22.4022 162.995 22.4574L169.485 35.2826C169.508 35.328 169.52 35.3782 169.52 35.4292C169.52 35.4802 169.508 35.5304 169.485 35.5758C167.813 39.0431 166.169 42.4557 164.506 45.9101C164.479 45.9604 164.465 46.0172 164.467 46.0747C164.468 46.1321 164.485 46.188 164.516 46.2367C164.547 46.2853 164.59 46.3249 164.641 46.3513C164.692 46.3777 164.749 46.3901 164.806 46.387H174.57C174.633 46.3881 174.695 46.3707 174.748 46.3369C174.802 46.3031 174.844 46.2544 174.87 46.1969C179.628 35.9732 184.379 25.755 189.122 15.5421C189.149 15.4919 189.162 15.4354 189.16 15.3785C189.158 15.3215 189.141 15.2662 189.11 15.218C189.08 15.1699 189.037 15.1307 188.987 15.1044C188.936 15.0781 188.88 15.0657 188.823 15.0684H178.285C178.211 15.0675 178.139 15.0924 178.08 15.1388C178.022 15.1852 177.982 15.2503 177.966 15.323Z" fill="#152026"/>
<path d="M126.93 30.1622C125.805 30.3845 124.893 29.9108 124.632 28.7894C124.41 27.8227 124.442 24.3296 124.439 22.5927C124.439 22.5073 124.473 22.4253 124.533 22.3649C124.594 22.3044 124.676 22.2705 124.761 22.2705H129.579C129.664 22.2705 129.746 22.2366 129.807 22.1761C129.867 22.1157 129.901 22.0337 129.901 21.9483V15.4197C129.901 15.3342 129.867 15.2522 129.807 15.1918C129.746 15.1314 129.664 15.0974 129.579 15.0974H124.745C124.66 15.0974 124.578 15.0635 124.517 15.003C124.457 14.9426 124.423 14.8607 124.423 14.7752V10.0737C124.423 9.98824 124.389 9.90628 124.328 9.84585C124.268 9.78542 124.186 9.75146 124.101 9.75146H114.459C114.374 9.75146 114.292 9.78542 114.231 9.84585C114.171 9.90628 114.137 9.98824 114.137 10.0737V14.7752C114.137 14.8607 114.103 14.9426 114.043 15.003C113.982 15.0635 113.9 15.0974 113.815 15.0974L106.996 15.0781C106.911 15.0781 106.829 15.0441 106.768 14.9837C106.708 14.9233 106.674 14.8413 106.674 14.7559V10.0737C106.674 9.98824 106.64 9.90628 106.579 9.84585C106.519 9.78542 106.437 9.75146 106.352 9.75146H96.6715C96.5861 9.75146 96.5041 9.78542 96.4437 9.84585C96.3832 9.90628 96.3493 9.98824 96.3493 10.0737V14.7752C96.3493 14.8607 96.3153 14.9426 96.2549 15.003C96.1945 15.0635 96.1125 15.0974 96.027 15.0974H93.6972C93.6118 15.0974 93.5298 15.1314 93.4694 15.1918C93.409 15.2522 93.375 15.3342 93.375 15.4197V21.9579C93.375 22.0434 93.409 22.1254 93.4694 22.1858C93.5298 22.2462 93.6118 22.2802 93.6972 22.2802H96.0431C96.1286 22.2802 96.2106 22.3141 96.271 22.3746C96.3314 22.435 96.3654 22.5169 96.3654 22.6024V22.9601C96.3654 24.7518 96.3396 26.5466 96.3654 28.3383C96.3689 29.3461 96.4486 30.3522 96.6039 31.348C97.1484 34.5317 98.8918 36.7359 102.082 37.6285C104.273 38.2349 106.576 38.3144 108.804 37.8605C110.113 37.6062 111.383 37.1793 112.581 36.5909C112.651 36.5584 112.708 36.5013 112.74 36.4302C112.772 36.3591 112.777 36.2788 112.755 36.2042C112.171 34.0806 111.598 31.986 111.034 29.9398C111.023 29.896 111.003 29.855 110.975 29.8194C110.948 29.7838 110.913 29.7544 110.873 29.7332C110.833 29.7119 110.789 29.6992 110.744 29.696C110.699 29.6927 110.654 29.6989 110.612 29.7143C110.13 29.885 109.64 30.0281 109.142 30.1428C108.021 30.3652 107.109 29.8915 106.848 28.7701C106.622 27.8034 106.658 24.3103 106.655 22.5734C106.655 22.4879 106.688 22.406 106.749 22.3455C106.809 22.2851 106.891 22.2512 106.977 22.2512L113.805 22.2802C113.89 22.2802 113.972 22.3141 114.033 22.3746C114.093 22.435 114.127 22.5169 114.127 22.6024V22.9601C114.127 24.7518 114.101 26.5466 114.127 28.3383C114.132 29.346 114.212 30.352 114.366 31.348C114.91 34.5317 116.654 36.7359 119.844 37.6285C122.034 38.235 124.336 38.3145 126.563 37.8605C127.872 37.6062 129.142 37.1793 130.339 36.5909C130.41 36.5584 130.467 36.5013 130.499 36.4302C130.531 36.3591 130.536 36.2788 130.513 36.2042C129.93 34.0806 129.356 31.986 128.796 29.9398C128.785 29.8956 128.765 29.8542 128.737 29.8184C128.709 29.7825 128.674 29.7529 128.634 29.7316C128.593 29.7103 128.549 29.6977 128.504 29.6947C128.458 29.6918 128.413 29.6984 128.37 29.7143C127.899 29.8906 127.418 30.0401 126.93 30.1622V30.1622Z" fill="#152026"/>
<path d="M64.2122 6.1748H54.2098C54.0265 6.1748 53.8779 6.3234 53.8779 6.50671V37.1228C53.8779 37.3061 54.0265 37.4547 54.2098 37.4547H64.2122C64.3955 37.4547 64.5441 37.3061 64.5441 37.1228V6.50671C64.5441 6.3234 64.3955 6.1748 64.2122 6.1748Z" fill="#152026"/>
<path d="M143.271 15.1396H133.249C133.066 15.1396 132.917 15.2882 132.917 15.4716V37.1261C132.917 37.3094 133.066 37.458 133.249 37.458H143.271C143.454 37.458 143.602 37.3094 143.602 37.1261V15.4716C143.602 15.2882 143.454 15.1396 143.271 15.1396Z" fill="#152026"/>
<path d="M87.8967 16.6313C85.3188 14.9138 82.4026 14.3982 79.6216 14.3757C76.8407 14.3531 73.9309 14.9138 71.3465 16.6313C68.6203 18.4423 67.0736 21.0202 66.5902 24.2201C66.4874 24.8986 66.4303 25.5833 66.4194 26.2695C66.4304 26.9547 66.4875 27.6383 66.5902 28.3158C67.0736 31.5156 68.6203 34.0935 71.3465 35.9045C73.9244 37.6221 76.8246 38.1377 79.6216 38.1602C82.4187 38.1828 85.3092 37.6221 87.8967 35.9045C90.6229 34.0935 92.1697 31.5156 92.653 28.3158C92.7547 27.6382 92.8107 26.9546 92.8206 26.2695C92.8108 25.5834 92.7548 24.8987 92.653 24.2201C92.1697 21.0202 90.6229 18.4423 87.8967 16.6313ZM82.2157 26.2792V26.4242C82.2607 27.3818 82.0494 28.334 81.6034 29.1826C81.406 29.5369 81.1175 29.8319 80.7678 30.0372C80.418 30.2425 80.0198 30.3506 79.6142 30.3503C79.2087 30.3499 78.8106 30.2412 78.4612 30.0353C78.1118 29.8295 77.8238 29.5339 77.627 29.1794C77.184 28.3297 76.9729 27.3783 77.0147 26.421C77.0147 26.3727 77.0147 26.3243 77.0147 26.276C77.0147 26.2276 77.0147 26.1761 77.0147 26.1278C76.9746 25.1737 77.1857 24.2259 77.627 23.379C77.8248 23.027 78.1128 22.7339 78.4613 22.5299C78.8099 22.3259 79.2065 22.2184 79.6103 22.2184C80.0142 22.2184 80.4108 22.3259 80.7593 22.5299C81.1079 22.7339 81.3959 23.027 81.5937 23.379C82.0397 24.2276 82.2511 25.1799 82.206 26.1374L82.2157 26.2792Z" fill="#152026"/>
<path d="M45.6157 20.3826C45.1522 19.8342 44.5679 19.4008 43.9088 19.1162C43.2496 18.8316 42.5334 18.7037 41.8165 18.7424C40.8208 18.7939 35.4007 19.5383 30.7314 20.4825C30.7023 20.4898 30.6716 20.4864 30.6448 20.473C30.6179 20.4596 30.5968 20.4371 30.5851 20.4095C30.5734 20.3818 30.572 20.351 30.5811 20.3224C30.5902 20.2938 30.6093 20.2694 30.6348 20.2537C34.5887 17.5791 38.9582 14.2374 39.7832 13.3223C40.6115 12.405 41.0427 11.1969 40.9823 9.96243C40.9219 8.72797 40.3748 7.56773 39.4609 6.73568C38.5442 5.90755 37.3366 5.47647 36.1027 5.53687C34.8687 5.59726 33.709 6.14421 32.8776 7.05792C32.2653 7.73463 30.2577 10.3448 28.2663 13.1644C28.2273 13.221 28.1701 13.2625 28.1041 13.282C28.0382 13.3014 27.9676 13.2976 27.9041 13.2712C27.8407 13.2447 27.7882 13.1973 27.7556 13.1368C27.723 13.0762 27.7122 13.0064 27.7249 12.9388C28.4113 9.22982 28.8721 5.97842 28.8463 5.02781C28.8226 4.21128 28.5856 3.41518 28.1588 2.71869C27.7319 2.0222 27.1302 1.44959 26.4134 1.05781C26.0751 0.867374 25.7117 0.725282 25.3339 0.635675C24.6346 0.461453 23.9046 0.451335 23.2007 0.606112C22.4969 0.760889 21.8384 1.07637 21.2768 1.52788C20.7151 1.97939 20.2655 2.55469 19.9631 3.20881C19.6607 3.86293 19.5137 4.57813 19.5336 5.29849C19.5594 6.26521 20.1781 11.7852 21.0127 16.4512C21.0197 16.4807 21.0157 16.5118 21.0016 16.5386C20.9875 16.5655 20.9642 16.5863 20.9359 16.5973C20.9077 16.6083 20.8764 16.6087 20.8478 16.5984C20.8193 16.5882 20.7954 16.5679 20.7807 16.5415C18.2446 12.5328 14.8675 7.79585 13.9556 6.91936C13.5182 6.49027 12.999 6.15359 12.4288 5.92938C11.8585 5.70516 11.249 5.59801 10.6365 5.61429C9.71434 5.63134 8.81793 5.92151 8.06068 6.44809C7.30343 6.97467 6.71935 7.71401 6.38234 8.57258C6.04533 9.43115 5.97052 10.3704 6.16737 11.2715C6.36422 12.1726 6.82389 12.995 7.48824 13.6348C8.22939 14.3567 11.1328 16.6994 14.1135 18.9325C14.1695 18.9716 14.2097 19.0295 14.2269 19.0957C14.244 19.1618 14.2369 19.232 14.207 19.2934C14.1814 19.355 14.1355 19.406 14.0768 19.4377C14.0181 19.4694 13.9502 19.4799 13.8847 19.4674C9.99527 18.7069 6.32495 18.1462 5.23256 18.1462H5.16489C4.46873 18.1609 3.78483 18.3322 3.16394 18.6474C2.54305 18.9626 2.00111 19.4136 1.57836 19.9669C1.1518 20.5231 0.855399 21.1679 0.710963 21.8539C0.566526 22.5398 0.577731 23.2494 0.743753 23.9304C0.873833 24.4882 1.11254 25.0149 1.44624 25.4804C1.8875 26.1111 2.47804 26.6227 3.16514 26.9696C3.85224 27.3165 4.61454 27.488 5.38401 27.4686C6.67297 27.4396 12.2413 26.8241 16.8719 25.9928C16.9014 25.9858 16.9324 25.9897 16.9593 26.0038C16.9861 26.0179 17.007 26.0412 17.0179 26.0695C17.0289 26.0978 17.0293 26.1291 17.0191 26.1576C17.0088 26.1861 16.9886 26.21 16.9621 26.2248C12.9695 28.7608 8.27773 32.1218 7.42379 32.9918C6.63048 33.8948 6.21649 35.0692 6.2682 36.27C6.31991 37.4708 6.83332 38.6053 7.70131 39.4367C8.56931 40.2681 9.72482 40.7322 10.9268 40.7322C12.1287 40.7322 13.2842 40.2681 14.1522 39.4366C14.7805 38.7921 16.7591 36.3528 18.8569 33.5751C18.8972 33.5186 18.9564 33.4784 19.0238 33.4618C19.0912 33.4453 19.1623 33.4534 19.2242 33.4848C19.2855 33.5105 19.3358 33.5567 19.3664 33.6156C19.397 33.6745 19.406 33.7423 19.3918 33.8071C18.5959 37.4967 18.0416 40.732 18.0416 41.6794C18.0736 42.8944 18.5787 44.049 19.4493 44.897C20.32 45.7451 21.4874 46.2197 22.7028 46.2197C23.9182 46.2197 25.0856 45.7451 25.9563 44.897C26.827 44.049 27.3321 42.8944 27.364 41.6794C27.364 40.674 26.8871 35.0155 26.1814 30.2786C26.1759 30.2489 26.1813 30.2183 26.1965 30.1923C26.2117 30.1662 26.2357 30.1465 26.2643 30.1368C26.2928 30.127 26.3239 30.1278 26.3518 30.139C26.3798 30.1503 26.4028 30.1712 26.4166 30.198C28.8592 34.3259 31.9463 38.9178 32.8357 39.8265C33.7006 40.7098 34.8809 41.2133 36.117 41.2263C37.3532 41.2393 38.5438 40.7607 39.4271 39.8958C40.3104 39.0309 40.8139 37.8506 40.8269 36.6145C40.8399 35.3783 40.3613 34.1877 39.4964 33.3044C38.7939 32.5858 35.6907 29.9048 32.4071 27.3333C32.3529 27.2934 32.3142 27.2359 32.2978 27.1706C32.2813 27.1054 32.2881 27.0364 32.3169 26.9756C32.3413 26.9132 32.3871 26.8615 32.4461 26.8296C32.5051 26.7977 32.5735 26.7878 32.6391 26.8016C36.8508 27.5266 41.1881 28.0905 42.3063 28.0132C43.1183 27.9681 43.9047 27.7127 44.5882 27.2721C45.2718 26.8314 45.8291 26.2207 46.2054 25.4997C46.3897 25.1552 46.5242 24.7864 46.605 24.4041C46.7595 23.7028 46.7507 22.9754 46.5792 22.278C46.4076 21.5807 46.078 20.9321 45.6157 20.3826V20.3826Z" fill="#0B841C"/>
</g>
<defs>
<clipPath id="clip0_923_3811">
<rect width="188.546" height="45.8838" fill="white" transform="translate(0.611816 0.5)"/>
</clipPath>
</defs>
</svg>
