<svg width="72" height="16" viewBox="0 0 72 16" fill="none" xmlns="http://www.w3.org/2000/svg">
<path fill-rule="evenodd" clip-rule="evenodd" d="M11.2747 3.21602L12.7183 2.14966C11.3984 1.08085 9.75106 0.498324 8.05262 0.499759H8.04924C6.20502 0.498324 4.4264 1.18393 3.0603 2.42284V2.42217C2.33471 3.07688 1.74565 3.86853 1.32696 4.75162C0.908282 5.63471 0.668232 6.59183 0.62061 7.56798L0.619257 7.59841C0.614524 7.7093 0.611819 7.82155 0.611819 7.93244V7.93921C0.610177 9.80546 1.31206 11.6038 2.5775 12.9755C3.89726 14.4124 5.73 15.2714 7.67869 15.3665C8.65426 15.4165 9.6301 15.2731 10.5501 14.9447C11.4701 14.6163 12.3161 14.1093 13.0395 13.4529C13.8114 12.7564 14.4282 11.9055 14.85 10.9553C15.2718 10.0051 15.4892 8.9768 15.488 7.93718C15.4889 7.49032 15.4498 7.04428 15.371 6.60441L13.7705 7.78436V7.93718C13.7707 8.68855 13.6225 9.43256 13.3344 10.1265C13.0463 10.8204 12.6239 11.4506 12.0915 11.9808C12.0283 12.0441 11.9629 12.1058 11.8968 12.1661L11.8853 12.1762C10.8356 13.1301 9.46821 13.6585 8.04991 13.6584V13.6571C7.29868 13.6576 6.55474 13.5098 5.86082 13.222C5.16689 12.9342 4.53665 12.5122 4.0063 11.9801L4.00697 11.9794C3.94036 11.913 3.87542 11.8449 3.81223 11.7752L3.8102 11.7732C2.79521 10.6555 2.26507 9.18087 2.3361 7.67279L2.33746 7.65182H2.3361C2.40658 6.2348 3.00253 4.89489 4.00765 3.89356L4.009 3.89491C4.53834 3.36358 5.16735 2.94194 5.85996 2.65418C6.55257 2.36641 7.29517 2.21817 8.04518 2.21796H8.05465C8.14864 2.21796 8.24195 2.22134 8.33459 2.22607V2.22404C9.38728 2.2759 10.4049 2.61909 11.274 3.21534L11.2747 3.21602ZM14.8267 4.8693C14.5879 4.34329 14.2888 3.8468 13.9355 3.3898L8.05127 7.72823L5.21938 5.95323V8.08864L8.05127 9.86364L14.8267 4.8693ZM59.5655 12.419H61.1593V3.49528H59.5655V12.419ZM68.598 10.1754C68.0625 10.694 67.2382 10.953 66.1245 10.953H64.6842V4.96126H66.1381C67.2673 4.96126 68.0943 5.2074 68.617 5.70034C69.1397 6.19396 69.4014 6.93709 69.4014 7.93177C69.4014 8.90886 69.1336 9.65673 68.598 10.1754ZM69.8605 4.60356C69.0524 3.86448 67.8204 3.49461 66.1631 3.49461H63.0905V12.419H66.1245C66.8474 12.419 67.5121 12.3297 68.12 12.1512C68.7279 11.9727 69.2506 11.6968 69.6881 11.3229C70.1255 10.9489 70.4657 10.4682 70.7084 9.88258C70.9505 9.29564 71.0715 8.59443 71.0715 7.77827C71.0715 6.40155 70.6679 5.34399 69.8605 4.60423V4.60356ZM43.819 4.9802L45.8361 3.49393H39.0864V12.4203H45.8361V10.9341H41.0128V8.64853H45.1268V7.16294H41.0128V4.9802H43.819ZM31.6476 10.9341H33.6559C34.8453 10.9341 35.4478 10.5385 35.4478 9.69663C35.4478 8.8737 34.8784 8.4592 33.6559 8.4592H31.6476V10.9341ZM31.6476 6.97361H33.9913C36.1199 6.97361 37.2924 7.91216 37.2924 9.61616C37.2924 11.3986 35.9989 12.4203 33.7424 12.4203H29.7218V3.49393H37.4067L35.3883 4.9802H31.6469L31.6476 6.97361ZM51.2639 8.40578H49.5558V4.9802H51.2632C52.4973 4.9802 53.1768 5.58877 53.1768 6.69299C53.1768 7.79721 52.4979 8.40578 51.2639 8.40578ZM51.3045 3.49393H47.63V12.4203H49.5558V9.89137H51.3045C53.6495 9.89137 55.1067 8.65867 55.1067 6.68825C55.1067 4.71783 53.6495 3.49393 51.3045 3.49393ZM24.7518 10.9043C25.3462 10.9043 25.9216 10.7603 26.4152 10.4878L26.8419 10.2538L28.0881 11.1734C27.2666 12.0538 26.0542 12.538 24.6653 12.538C23.3379 12.538 22.1275 12.0694 21.2573 11.2181C20.3884 10.3694 19.9103 9.19354 19.9103 7.9081C19.9103 6.6274 20.3904 5.46908 21.2613 4.64548C22.1275 3.82729 23.3406 3.37627 24.6774 3.37627C25.9101 3.37627 26.988 3.75088 27.7947 4.45953L27.886 4.54L26.5032 5.55766C25.9974 5.19455 25.4084 5.00995 24.7518 5.00995C23.0147 5.00995 21.7543 6.24941 21.7543 7.95679C21.7543 9.66484 23.0154 10.9043 24.7518 10.9043Z" fill="#152026"/>
</svg>
