<svg width="40" height="19" viewBox="0 0 40 19" fill="none" xmlns="http://www.w3.org/2000/svg">
<g clip-path="url(#clip0_923_3797)">
<path d="M0.611816 9.30941C0.611816 5.15662 0.611816 3.08022 1.90193 1.79011C3.19203 0.5 5.26843 0.5 9.42123 0.5H10.1553C14.3082 0.5 16.3846 0.5 17.6746 1.79011C18.9648 3.08022 18.9648 5.15662 18.9648 9.30941V10.0435C18.9648 14.1963 18.9648 16.2727 17.6746 17.5628C16.3846 18.8529 14.3082 18.8529 10.1553 18.8529H9.42123C5.26843 18.8529 3.19203 18.8529 1.90193 17.5628C0.611816 16.2727 0.611816 14.1963 0.611816 10.0435V9.30941Z" fill="#0077FF"/>
<path d="M10.4142 13.8824C6.27333 13.8824 3.76103 11.0094 3.6626 6.23535H5.75984C5.82522 9.74229 7.42075 11.2283 8.64382 11.5339V6.23535H10.6537V9.26183C11.8334 9.13106 13.0683 7.75448 13.4833 6.23535H15.4616C15.145 8.10341 13.8006 9.48 12.8509 10.0479C13.8014 10.507 15.3308 11.7087 15.9207 13.8824H13.7463C13.2872 12.4294 12.1625 11.304 10.6544 11.1512V13.8824H10.4142Z" fill="white"/>
</g>
<g clip-path="url(#clip1_923_3797)">
<path d="M25.0845 15.4115H26.9686V4.32324H25.0845V15.4115Z" fill="black"/>
<path d="M29.4087 15.4115H33.8685C37.2286 15.4115 39.6151 13.1152 39.6151 9.85948C39.6151 6.61953 37.2286 4.32324 33.8685 4.32324H29.4087V15.4115ZM31.2928 13.6814V6.05332H33.8685C36.1138 6.05332 37.6525 7.61039 37.6525 9.85948C37.6525 12.1243 36.1138 13.6814 33.8685 13.6814H31.2928Z" fill="black"/>
</g>
<defs>
<clipPath id="clip0_923_3797">
<rect width="18.3529" height="18.3529" fill="white" transform="translate(0.611816 0.5)"/>
</clipPath>
<clipPath id="clip1_923_3797">
<rect width="19.1176" height="18.3529" fill="white" transform="translate(20.4946 0.5)"/>
</clipPath>
</defs>
</svg>
