<svg width="195" height="151" viewBox="0 0 195 151" fill="none" xmlns="http://www.w3.org/2000/svg">
<path d="M124.201 62.7051C124.201 62.7051 115.398 90.3372 107.672 82.8234C99.9474 75.3048 114.616 53.1798 117.176 54.3646C122.485 56.802 100.78 83.6338 93.4403 81.1305C86.1024 78.6223 101.461 41.9364 106.83 43.506C112.2 45.0757 91.0112 72.1448 85.2472 69.544C79.4818 66.9479 94.6667 24.2276 100.136 29.6782C107.291 38.1905 55.077 54.8969 51.3995 49.6533C47.7204 44.4146 96.8582 13.1541 116.365 16.4712C146.7 19.5415 150.23 37.2599 179.823 88.7075" stroke="#152026" stroke-miterlimit="10" stroke-linecap="round"/>
<path d="M73.6788 128.547C71.7083 127.974 68.8655 122.662 73.2579 105.99C78.7484 85.1492 86.39 70.0002 67.49 59.4445C48.9284 49.0779 32.1785 77.2327 25.694 89.5048C20.5065 99.3225 10.885 105 7.65992 101.094C1.39164 93.5003 33.8916 89.5048 56.8916 112.5C73.053 128.659 62.227 130.295 54.9031 129.771C47.5791 129.246 25.0167 125.097 21.812 114.017C18.6073 102.938 40.5346 107.436 48.075 117.372C55.6153 127.307 50.1607 136.94 40.0235 135.064C31.9138 133.564 24.4063 128.748 21.6663 126.528" stroke="#152026"/>
<path d="M68.3885 60C64.3887 58 61.9882 51.6005 68.3882 48.0005C76.3882 43.5005 82.8884 51.5 78.8884 57C74.8884 62.5 66.8884 56 68.8887 52.5" stroke="#152026"/>
<path d="M52.8906 64.5C49.224 67.6667 40.9906 76.3 37.3906 85.5" stroke="#152026"/>
</svg>
