<svg width="88" height="89" viewBox="0 0 88 89" fill="none" xmlns="http://www.w3.org/2000/svg">
<path d="M58.1797 9.4873L48.7005 18.7473" stroke="#152026" stroke-width="0.678261" stroke-miterlimit="10" stroke-linecap="round" stroke-linejoin="round"/>
<path d="M44.5786 3.80808L44.5785 17.9432" stroke="#152026" stroke-width="0.678261" stroke-miterlimit="10" stroke-linecap="round" stroke-linejoin="round"/>
<path d="M35.3916 12.4596L39.4125 19.5749" stroke="#152026" stroke-width="0.678261" stroke-miterlimit="10" stroke-linecap="round" stroke-linejoin="round"/>
<path d="M87.4029 73.7682C83.8614 70.9793 74.1674 62.5067 76.7173 53.4759C79.9046 42.1874 86.1512 41.3046 84.0216 39.0001C78.8422 33.3953 63.8058 50.6664 66.7569 53.3431C68.9532 55.3352 73.2644 44.7107 74.1225 33.3953C75.0967 20.548 71.0358 24.6571 70.2239 26.5163C67.745 32.1935 65.6944 39.5313 67.2881 39.9297C68.8818 40.3281 72.1836 23.7005 68.6775 21.5756C64.2949 18.9195 58.9827 39.2388 59.9123 42.5589C60.842 45.879 66.2869 23.4349 62.8339 22.2396C59.381 21.0444 53.3435 39.3985 55.3356 39.9297C57.3277 40.4609 57.92 26.3566 55.9279 24.8957C53.9358 23.4349 45.7019 46.0118 48.8892 58.0972C51.4391 67.7654 62.7012 77.7082 68.0135 81.471" stroke="#152026" stroke-width="0.678261" stroke-linecap="round" stroke-linejoin="round"/>
<path d="M2.93055 77.5819C6.95601 75.5531 15.8513 68.6122 15.1487 59.2547C14.2704 47.5578 6.22858 42.0983 8.77401 40.2634C14.9648 35.8008 23.5154 51.8175 20.1953 52.7243C17.3349 53.5056 19.9835 46.1944 21.3933 34.9343C22.9939 22.1499 26.1564 26.9847 26.5822 28.9683C27.8824 35.0251 28.2233 43.2445 26.5822 43.318C24.9411 43.3914 25.7661 24.5165 29.6248 23.1315C34.4481 21.4002 34.2508 45.5613 32.6794 48.6302C31.1079 51.6991 32.2446 25.7409 35.8663 25.2564C39.488 24.7718 39.7674 52.6 37.7094 52.7243C35.6515 52.8487 38.9648 34.1274 41.2076 33.0919C43.4505 32.0565 46.7365 52.9518 41.209 64.1617C36.787 73.1296 28.9388 83.4504 22.9842 86.0814" stroke="#152026" stroke-width="0.678261" stroke-linecap="round" stroke-linejoin="round"/>
</svg>
