<svg width="360" height="339" viewBox="0 0 360 339" fill="none" xmlns="http://www.w3.org/2000/svg">
<path opacity="0.1" d="M285.142 20.6764C281.356 16.8473 276.734 13.9078 271.637 12.0883C266.54 10.2689 261.108 9.61896 255.766 10.1896C250.423 10.7602 245.317 12.5359 240.847 15.3773C236.377 18.2188 232.665 22.0487 230.002 26.5665C225.318 34.5505 202.516 82.9508 189.03 119.064C188.95 119.281 188.793 119.461 188.588 119.574C188.383 119.686 188.142 119.723 187.907 119.679C187.673 119.634 187.461 119.511 187.307 119.33C187.154 119.15 187.069 118.923 187.068 118.691C186.688 79.7775 182.377 25.8066 179.485 15.4131C176.995 6.72779 171.115 -0.720917 163.126 -5.30975C155.136 -9.89855 145.685 -11.2556 136.831 -9.0851C127.978 -6.91462 120.44 -1.39256 115.86 6.27776C111.28 13.9481 110.029 23.1449 112.38 31.8642C114.368 38.9604 124.696 66.7815 136.346 94.7322C136.653 95.4725 136.696 96.2871 136.467 97.0424C136.239 97.7978 135.752 98.4491 135.088 98.8895C134.424 99.3298 133.621 99.5332 132.812 99.4663C132.002 99.3993 131.234 99.0659 130.632 98.5208C107.919 77.0417 84.4092 56.4978 77.1944 52.1173C69.2772 47.3165 59.8027 45.7437 50.8553 47.745C41.9078 49.7463 34.2204 55.1576 29.4841 62.7887C24.7478 70.4197 23.3506 79.6453 25.5998 88.4359C27.8491 97.2266 33.5606 104.862 41.4778 109.663C49.4765 114.503 99.6153 139.366 136.661 154.248C136.877 154.34 137.056 154.503 137.166 154.707C137.276 154.911 137.311 155.145 137.265 155.368C137.219 155.591 137.095 155.79 136.914 155.931C136.732 156.072 136.505 156.146 136.271 156.14C96.1316 154.184 38.3681 155.651 27.5705 157.931C23.1245 158.874 18.9321 160.669 15.2331 163.213C11.5341 165.757 8.40114 169 6.01328 172.757C3.62542 176.514 2.02956 180.71 1.31697 185.106C0.604381 189.503 0.789043 194.013 1.86039 198.378C4.02163 207.193 9.65703 214.886 17.5283 219.769C25.3996 224.651 34.8628 226.323 43.8385 224.417C52.0357 222.678 83.9941 212.969 114.431 202.246C115.194 201.968 116.038 201.957 116.821 202.215C117.604 202.473 118.279 202.985 118.731 203.664C119.184 204.343 119.387 205.148 119.307 205.945C119.227 206.741 118.869 207.481 118.292 208.039C94.8774 231.281 71.6497 256.464 67.3238 263.4C64.6347 267.699 62.9799 272.553 62.4811 277.607C61.9822 282.661 62.652 287.785 64.4412 292.603C66.2304 297.42 69.0934 301.809 72.8196 305.445C76.5458 309.082 81.0404 311.873 85.9727 313.615C89.985 315.074 94.2318 315.763 98.4769 315.645C104.077 315.542 109.539 314.119 114.398 311.495C119.257 308.872 123.369 305.125 126.384 300.575L126.849 299.873C132.819 290.36 157.635 241.118 171.761 205.803C171.847 205.59 172.008 205.415 172.215 205.308C172.422 205.201 172.663 205.17 172.895 205.219C173.127 205.268 173.336 205.394 173.485 205.577C173.635 205.759 173.716 205.985 173.713 206.216C172.806 245.331 175.632 301.35 178.179 311.659C179.254 316.019 181.193 320.149 183.885 323.812C186.577 327.475 189.969 330.601 193.868 333.01C197.766 335.419 202.095 337.064 206.607 337.852C211.119 338.64 215.726 338.555 220.165 337.602C224.603 336.649 228.787 334.847 232.476 332.298C236.165 329.749 239.288 326.503 241.666 322.747C244.045 318.99 245.632 314.796 246.337 310.403C247.042 306.01 246.852 301.505 245.777 297.145C243.876 289.411 234.611 262.184 224.056 234.586C223.762 233.832 223.74 233.007 223.994 232.251C224.248 231.495 224.761 230.853 225.449 230.432C226.137 230.011 226.958 229.837 227.773 229.939C228.588 230.041 229.349 230.413 229.929 230.992C252.013 253.083 274.89 274.267 281.965 278.834C285.815 281.32 290.112 283.051 294.61 283.929C299.107 284.807 303.718 284.814 308.179 283.95C312.64 283.086 316.863 281.368 320.607 278.894C324.351 276.42 327.544 273.238 330.002 269.53C332.46 265.823 334.135 261.662 334.933 257.285C335.73 252.908 335.634 248.401 334.65 244.022C333.665 239.642 331.812 235.476 329.195 231.76C326.579 228.045 323.25 224.853 319.4 222.367C311.484 217.257 260.642 190.244 223.935 174.44C223.708 174.349 223.519 174.182 223.405 173.968C223.291 173.755 223.259 173.511 223.315 173.28C223.37 173.049 223.51 172.847 223.708 172.712C223.905 172.577 224.148 172.518 224.391 172.545C264.226 175.491 320.307 175.789 331.398 173.792C335.929 173.036 340.24 171.403 344.08 168.988C347.921 166.573 351.214 163.424 353.768 159.726C356.323 156.027 358.086 151.852 358.957 147.444C359.828 143.036 359.789 138.482 358.841 134.05C357.894 129.617 356.057 125.392 353.438 121.623C350.819 117.854 347.471 114.614 343.587 112.094C339.704 109.574 335.363 107.823 330.819 106.943C326.274 106.063 321.615 106.072 317.115 106.969C308.571 108.529 274.296 117.869 242.524 128.192C241.662 128.476 240.721 128.466 239.852 128.165C238.983 127.863 238.237 127.287 237.732 126.53C237.228 125.772 236.995 124.876 237.071 123.986C237.148 123.096 237.528 122.264 238.152 121.623C261.898 96.8667 286.1 69.0294 290.532 61.499C293.525 56.3952 295.083 50.5857 295.053 44.6462C295.022 38.7066 293.404 32.8432 290.358 27.6366C288.967 25.0901 287.21 22.7457 285.142 20.6764Z" fill="#F4F9F4"/>
</svg>
