<svg width="173" height="173" viewBox="0 0 173 173" fill="none" xmlns="http://www.w3.org/2000/svg">
<path d="M128.899 113.501C128.899 113.501 124.88 87.625 114.888 91.2927C103.028 97.093 102.108 116.427 104.652 117.119C109.916 118.569 112.303 90.5883 105.55 87.9591C98.7965 85.3342 82.6694 115.904 87.4508 118.017C90.2805 119.267 91.2131 106.882 97.1146 92.4114C101.185 82.4304 111.558 76.2974 106.258 70.6036C102.104 66.141 83.9018 76.4446 77.5544 91.0313C70.7948 106.565 68.0385 126.627 71.7534 126.302C82.0142 124.48 78.9812 56.3146 65.8527 61.8669C60.0547 63.4262 46.7098 133.196 62.635 142.594C78.5602 151.991 80.9246 152.227 141.058 158.266" stroke="#152026" stroke-width="1.5" stroke-miterlimit="10" stroke-linecap="round"/>
<path d="M55.4712 110.817L24.531 55.2322C23.6802 53.7038 24.125 51.7795 25.5601 50.7795L35.5909 43.7897C37.0033 42.8055 38.9249 43.0774 40.4302 43.9126C42.6172 45.126 45.8487 45.8167 49.4276 43.4611C52.9622 41.1348 53.7167 38.1157 53.4465 35.6848C53.2552 33.9633 53.6545 32.0528 55.0846 31.0756L67.4089 22.6546C69.0311 21.5462 71.2521 22.0357 72.258 23.7233L94.5988 61.2031" stroke="#152026" stroke-width="1.5" stroke-linecap="round" stroke-linejoin="round"/>
<path d="M31.5706 66.975L73.0174 40.0178" stroke="#152026" stroke-width="1.5" stroke-linecap="round"/>
<path d="M131.611 93.7563L132.084 34.6665C132.098 32.912 130.777 31.4337 129.032 31.2506L118.848 30.1817C117.136 30.002 115.589 31.1784 114.62 32.6011C113.394 34.3998 111.202 36.1376 107.573 35.8537C103.995 35.5738 102.11 33.7227 101.214 31.8093C100.479 30.2407 99.214 28.7482 97.4898 28.5832L81.3379 27.0377" stroke="#152026" stroke-width="1.5" stroke-linecap="round" stroke-linejoin="round"/>
<path d="M131.653 46.5324L92.3217 45.0754" stroke="#152026" stroke-width="1.5" stroke-linecap="round"/>
<path d="M27.6203 93.5366C28.2042 100.273 31.1159 102.522 37.6385 101.956C31.0143 102.531 28.6456 105.364 29.2186 111.975C28.6521 105.44 25.8331 102.98 19.221 103.553C25.9588 102.969 28.1921 100.513 27.6203 93.5366Z" stroke="#152026" stroke-width="1.5" stroke-miterlimit="10" stroke-linecap="round" stroke-linejoin="round"/>
<path d="M37.5625 101.976L40.5497 101.717" stroke="#152026" stroke-width="1.5" stroke-miterlimit="10" stroke-linecap="round" stroke-linejoin="round"/>
<path d="M16.3281 103.817L19.3153 103.558" stroke="#152026" stroke-width="1.5" stroke-miterlimit="10" stroke-linecap="round" stroke-linejoin="round"/>
<path d="M29.2266 111.893L29.4855 114.88" stroke="#152026" stroke-width="1.5" stroke-miterlimit="10" stroke-linecap="round" stroke-linejoin="round"/>
<path d="M27.3867 90.6562L27.6457 93.6434" stroke="#152026" stroke-width="1.5" stroke-miterlimit="10" stroke-linecap="round" stroke-linejoin="round"/>
<path d="M144.534 12.8874C142.997 17.8527 144.418 20.2984 149.226 21.7868C144.343 20.2752 141.835 21.606 140.327 26.4787C141.818 21.6618 140.524 19.0928 135.65 17.584C140.617 19.1215 142.919 18.0204 144.534 12.8874Z" stroke="#152026" stroke-width="1.5" stroke-miterlimit="10" stroke-linecap="round" stroke-linejoin="round"/>
<path d="M149.172 21.7795L151.374 22.4612" stroke="#152026" stroke-width="1.5" stroke-miterlimit="10" stroke-linecap="round" stroke-linejoin="round"/>
<path d="M133.523 16.9338L135.725 17.6155" stroke="#152026" stroke-width="1.5" stroke-miterlimit="10" stroke-linecap="round" stroke-linejoin="round"/>
<path d="M140.363 26.4231L139.682 28.625" stroke="#152026" stroke-width="1.5" stroke-miterlimit="10" stroke-linecap="round" stroke-linejoin="round"/>
<path d="M145.215 10.7688L144.533 12.9707" stroke="#152026" stroke-width="1.5" stroke-miterlimit="10" stroke-linecap="round" stroke-linejoin="round"/>
</svg>
