<svg width="292" height="328" viewBox="0 0 292 328" fill="none" xmlns="http://www.w3.org/2000/svg">
<path d="M272.944 8.5697C270.399 18.1731 273.305 22.732 282.604 25.1968C273.16 22.6936 268.474 25.4322 265.976 34.8564C268.446 25.5402 265.773 20.7357 256.346 18.2371C265.952 20.7832 270.262 18.4996 272.944 8.5697Z" stroke="#152026" stroke-width="1.30851" stroke-miterlimit="10" stroke-linecap="round" stroke-linejoin="bevel"/>
<path d="M282.498 25.1875L286.757 26.3163" stroke="#152026" stroke-width="1.30851" stroke-miterlimit="10" stroke-linecap="round" stroke-linejoin="round"/>
<path d="M252.221 17.1631L256.479 18.2919" stroke="#152026" stroke-width="1.30851" stroke-miterlimit="10" stroke-linecap="round" stroke-linejoin="round"/>
<path d="M266.041 34.748L264.912 39.0068" stroke="#152026" stroke-width="1.30851" stroke-miterlimit="10" stroke-linecap="round" stroke-linejoin="round"/>
<path d="M274.064 4.47168L272.936 8.73045" stroke="#152026" stroke-width="1.30851" stroke-miterlimit="10" stroke-linecap="round" stroke-linejoin="round"/>
<path d="M40.5325 277.195C43.4794 291.448 50.2715 295.523 64.0735 292.669C50.0565 295.567 45.7069 302.223 48.5987 316.21C45.74 302.383 39.0929 297.834 25.1015 300.727C39.3589 297.779 43.5141 291.966 40.5325 277.195Z" stroke="#152026" stroke-width="1.30851" stroke-miterlimit="10" stroke-linecap="round" stroke-linejoin="bevel"/>
<path d="M63.9238 292.728L70.2449 291.421" stroke="#152026" stroke-width="1.30851" stroke-miterlimit="10" stroke-linecap="round" stroke-linejoin="round"/>
<path d="M18.9863 302.019L25.3074 300.712" stroke="#152026" stroke-width="1.30851" stroke-miterlimit="10" stroke-linecap="round" stroke-linejoin="round"/>
<path d="M48.6113 316.027L49.9182 322.348" stroke="#152026" stroke-width="1.30851" stroke-miterlimit="10" stroke-linecap="round" stroke-linejoin="round"/>
<path d="M39.3223 271.09L40.6291 277.411" stroke="#152026" stroke-width="1.30851" stroke-miterlimit="10" stroke-linecap="round" stroke-linejoin="round"/>
<path d="M205.383 176.725C205.383 176.725 206.644 158.682 209.277 142.409C210.778 133.128 215.615 130.396 217.169 141.559C218.724 152.722 217.766 180.183 215.449 183.604C213.682 186.213 213.97 156.189 219.684 158.273C225.784 160.498 227.606 180.857 225.765 187.178C224.55 191.354 222.782 184.471 223.609 176.935C224.436 169.4 225.394 160.567 229.278 162.821C233.124 165.053 235.648 185.037 233.964 191.034C232.28 197.031 230.47 190.224 232.78 181.93C235.203 173.232 235.703 169.721 238.524 171.071C245.056 174.199 241.027 246.145 199.123 278.837" stroke="#152026" stroke-width="1.30851" stroke-linecap="round" stroke-linejoin="round"/>
<path d="M201.317 196.577C201.317 196.577 211.384 206.887 215.824 205.767C220.958 204.472 213.162 193.767 206.661 186.507C199.386 178.383 193.9 179.139 192.641 187.326C191.759 193.036 201.366 222.985 190.647 256.755" stroke="#152026" stroke-width="1.30851" stroke-linecap="round" stroke-linejoin="round"/>
<path d="M128.588 168.788C126.79 173.352 123.362 183.94 124.035 189.788" stroke="#152026" stroke-width="1.30851" stroke-linecap="round" stroke-linejoin="round"/>
<path d="M86.9591 128.331C100.043 122.21 99.3899 108.155 99.3899 108.155C107.249 114.515 132.89 125.091 144.154 108.155C149.087 100.739 138.439 95.1877 127.742 98.0984C116.127 101.259 132.664 105.327 147.218 94.8232C162.779 82.6649 116.501 62.478 82.9968 85.7568C54.0124 86.9603 30.2528 191.089 43.9966 201.608" stroke="#152026" stroke-width="1.30851" stroke-linecap="round"/>
<path d="M60.3253 196.809C48.6169 199.879 21.3316 214.121 5.85801 246.532" stroke="#152026" stroke-width="1.30851" stroke-linecap="round" stroke-linejoin="round"/>
<path d="M78.8711 192.09C82.4369 198.383 94.2881 210.716 114.425 210.968C134.561 211.22 133.617 202.053 128.583 195.551C142.742 200.375 171.419 210.968 182.978 236.405" stroke="#152026" stroke-width="1.30851" stroke-linecap="round" stroke-linejoin="round"/>
<path d="M124.086 132.038L130.455 141.583C131.336 142.904 130.555 144.695 128.986 144.946L124.086 145.733" stroke="#152026" stroke-width="1.30851" stroke-linecap="round" stroke-linejoin="round"/>
<path d="M92.8191 135.936C79.3281 129.792 79.6686 147.321 92.6182 149.077L93.4994 149.192C101.002 165.768 120.537 173.867 133.865 166.748C147.193 159.629 141.96 138.412 139.557 121.724" stroke="#152026" stroke-width="1.30851" stroke-miterlimit="10" stroke-linecap="round"/>
<path d="M118.932 129.076C116.554 127.347 111.327 126.661 106.675 132.536" stroke="#152026" stroke-width="1.30851" stroke-linecap="round"/>
<path d="M136.155 123.762C134.226 122.373 129.986 121.82 126.213 126.542" stroke="#152026" stroke-width="1.30851" stroke-linecap="round"/>
<circle cx="2.37885" cy="2.37885" r="2.37885" transform="matrix(-0.998689 -0.0511902 -0.0511902 0.998689 116.344 130.703)" fill="#152026"/>
<circle cx="2.37885" cy="2.37885" r="2.37885" transform="matrix(-0.986266 -0.165163 -0.165163 0.986266 135.184 128.244)" fill="#152026"/>
<path d="M127.167 156.399C121.983 158.097 116.627 156.093 114.708 151.448" stroke="#152026" stroke-width="1.30851" stroke-linecap="round"/>
<path d="M185.77 131.862C191.131 130.737 205.269 119.933 197.097 112.489C187.696 103.924 176.618 117.572 185.77 124.316C190.972 128.149 205.029 123.778 200.723 112.389C196.417 101 189.644 101.998 190.747 94.1302C192.186 83.8635 209.672 83.2366 211.343 74.2246C213.014 65.2126 206.85 58.4581 197.535 62.8266C188.219 67.195 185.128 71.0094 182.13 66.8805C178.285 61.5852 190.902 50.9558 204.568 51.2507C218.234 51.5456 225.445 62.8266 225.286 69.3519C224.892 85.4902 215.783 85.2666 203.477 94.1302" stroke="#152026" stroke-width="1.30851" stroke-linecap="round"/>
</svg>
