<svg width="147" height="116" viewBox="0 0 147 116" fill="none" xmlns="http://www.w3.org/2000/svg">
<path d="M58.681 32.782L55.4301 16.3302C54.8694 13.4927 52.261 11.5105 49.3878 11.8432C42.8073 12.605 36.093 13.931 27.3565 17.2817C24.9057 18.2217 23.513 20.7933 23.9656 23.3789C27.8679 45.67 31.8441 63.5023 34.2214 76.8382C34.6405 79.1895 36.4563 81.08 38.8299 81.3447C46.7204 82.2246 53.4853 81.1818 58.681 79.5657" stroke="#152026" stroke-linecap="round"/>
<path d="M136.275 89.9497C136.424 90.1817 136.357 90.4909 136.125 90.6403C135.892 90.7897 135.583 90.7227 135.433 90.4906L136.275 89.9497ZM70.1163 28.5151L70.3699 28.0841L70.1163 28.5151ZM78.8945 48.4788L78.9535 48.9749L78.8945 48.4788ZM42.289 39.624L42.2136 39.1301L42.289 39.624ZM68.0151 74.0828L68.2338 73.6332C68.4805 73.7528 68.5846 74.0486 68.4672 74.2964C68.3498 74.5441 68.0547 74.6513 67.8056 74.5367L68.0151 74.0828ZM45.1447 72.4786L45.6155 72.6474L45.1447 72.4786ZM82.5835 89.7875C82.8226 89.9256 82.9042 90.2313 82.7658 90.4702C82.6273 90.7091 82.3213 90.7909 82.0821 90.6528L82.5835 89.7875ZM135.433 90.4906C125.257 74.6817 103.134 48.4644 69.8627 28.946L70.3699 28.0841C103.8 47.6958 126.03 74.0345 136.275 89.9497L135.433 90.4906ZM69.8627 28.946C67.2848 27.4337 65.3993 26.6558 64.084 26.4121C62.7637 26.1674 62.1843 26.4788 61.9274 26.904C61.6228 27.4081 61.592 28.3176 61.9434 29.6286C62.2859 30.9063 62.9576 32.4408 63.8694 34.0819C65.6921 37.3625 68.431 40.9927 71.2504 43.7311C72.6602 45.1004 74.0764 46.2332 75.3951 46.9889C76.7247 47.7509 77.895 48.0948 78.8355 47.9826L78.9535 48.9749C77.6994 49.1246 76.301 48.6607 74.8967 47.8559C73.4814 47.0448 71.9984 45.8521 70.5526 44.4478C67.6608 41.6392 64.863 37.9304 62.9945 34.5674C62.0607 32.8868 61.3482 31.2733 60.9768 29.8878C60.6144 28.5356 60.5399 27.2667 61.0709 26.388C61.6495 25.4305 62.7848 25.1547 64.2673 25.4294C65.7548 25.705 67.76 26.5531 70.3699 28.0841L69.8627 28.946ZM78.8355 47.9826C79.1604 47.9438 79.3375 47.8718 79.4216 47.8137C79.4834 47.7709 79.4788 47.7519 79.4792 47.737C79.4803 47.6887 79.4576 47.5678 79.3227 47.3623C79.1921 47.1635 78.9822 46.9253 78.6823 46.6548C77.4738 45.5643 75.0437 44.16 71.637 42.8754C64.8436 40.3138 54.3262 38.288 42.3644 40.118L42.2136 39.1301C54.3658 37.271 65.0571 39.3258 71.991 41.9404C75.4479 43.2439 78.011 44.7017 79.3534 45.9129C79.6912 46.2178 79.9664 46.52 80.1593 46.8135C80.3478 47.1004 80.4871 47.4238 80.4795 47.7587C80.4712 48.127 80.2875 48.4301 79.9907 48.6353C79.7161 48.8251 79.3552 48.927 78.9535 48.9749L78.8355 47.9826ZM42.3644 40.118C39.2543 40.5938 37.3603 41.1446 36.3753 41.7071C35.881 41.9894 35.695 42.2301 35.6394 42.39C35.5956 42.5158 35.6019 42.6822 35.788 42.9377C35.9821 43.2044 36.3357 43.5102 36.8653 43.8429C37.3883 44.1715 38.0523 44.5075 38.8343 44.8455C40.3982 45.5213 42.396 46.1889 44.5987 46.8142C49.0023 48.0643 54.1763 49.1322 58.226 49.7565C60.2525 50.0688 61.9842 50.268 63.1911 50.3251C63.8001 50.3539 64.2481 50.345 64.5268 50.3051C64.6735 50.2841 64.7251 50.2607 64.7249 50.2608C64.7219 50.2625 64.6762 50.2871 64.634 50.3514C64.5838 50.428 64.5631 50.5239 64.5776 50.6145L65.5656 50.4557C65.5906 50.6119 65.5568 50.7677 65.4707 50.8989C65.3927 51.0178 65.2885 51.0916 65.2052 51.1372C65.0445 51.2252 64.8485 51.2686 64.6679 51.2944C64.292 51.3482 63.7667 51.3529 63.143 51.3234C61.8846 51.2638 60.113 51.0587 58.0727 50.7442C53.9885 50.1147 48.7735 49.0386 44.3245 47.7756C42.1009 47.1443 40.0566 46.463 38.4364 45.7628C37.6264 45.4127 36.9128 45.0539 36.3321 44.689C35.7579 44.3282 35.2815 43.9419 34.9786 43.5259C34.6676 43.0988 34.5099 42.592 34.6943 42.0623C34.8669 41.5666 35.3015 41.1694 35.8791 40.8396C37.038 40.1778 39.0939 39.6073 42.2136 39.1301L42.3644 40.118ZM64.5776 50.6145C64.5859 50.6664 64.6053 50.6761 64.5766 50.6406C64.5501 50.6079 64.4995 50.5575 64.4128 50.4912C64.2392 50.3585 63.9723 50.2004 63.6088 50.0226C62.8855 49.669 61.8506 49.2714 60.5928 48.863C58.0813 48.0474 54.7368 47.206 51.3473 46.593C47.9533 45.9791 44.5425 45.5995 41.8903 45.6944C40.5612 45.742 39.4557 45.9079 38.6469 46.2035C37.8324 46.5013 37.4092 46.8944 37.2666 47.3401L36.3135 47.0365C36.5922 46.1657 37.3583 45.6106 38.3037 45.265C39.2549 44.9173 40.4802 44.7448 41.8552 44.6956C44.6112 44.597 48.1025 44.9903 51.5262 45.6095C54.9545 46.2296 58.3433 47.0813 60.9028 47.9125C62.1805 48.3274 63.2655 48.7417 64.0493 49.1249C64.4393 49.3156 64.7727 49.5073 65.0215 49.6976C65.146 49.7928 65.2621 49.8973 65.3548 50.0119C65.4453 50.1236 65.5363 50.2729 65.5656 50.4557L64.5776 50.6145ZM37.2666 47.3401C37.1377 47.7427 37.2935 48.3385 37.9652 49.1656C38.6173 49.9684 39.6597 50.8669 40.9973 51.8138C43.6663 53.7034 47.4104 55.7163 51.2572 57.4781C55.102 59.2391 59.0241 60.7376 62.0401 61.6054C63.5525 62.0405 64.8129 62.3098 65.713 62.3815C66.167 62.4176 66.4931 62.4001 66.7024 62.3486C66.9189 62.2953 66.8989 62.2381 66.8831 62.2838L67.8292 62.6083C67.6825 63.0342 67.2959 63.2316 66.9411 63.3189C66.5791 63.408 66.129 63.4172 65.6328 63.3777C64.6326 63.2981 63.2965 63.0071 61.7625 62.5658C58.6859 61.6806 54.7159 60.162 50.8396 58.3866C46.9651 56.6121 43.1587 54.5695 40.4183 52.6294C39.0511 51.6615 37.924 50.7016 37.188 49.7956C36.4718 48.9139 36.0211 47.9504 36.3135 47.0365L37.2666 47.3401ZM66.8831 62.2838C66.8836 62.2825 66.8843 62.2801 66.8845 62.2751C66.8848 62.2696 66.8846 62.2588 66.881 62.2412C66.8734 62.2045 66.8521 62.1441 66.7995 62.0585C66.692 61.8832 66.49 61.6599 66.1742 61.3948C65.5464 60.8679 64.568 60.2571 63.3234 59.607C60.8419 58.3109 57.3938 56.9054 53.8238 55.7387C50.252 54.5714 46.586 53.6524 43.6672 53.3166C42.2048 53.1484 40.9589 53.1303 40.0168 53.2863C39.054 53.4458 38.535 53.7645 38.3265 54.1475L37.4475 53.6706C37.8826 52.8713 38.7998 52.475 39.8538 52.3004C40.9283 52.1224 42.2796 52.1509 43.7824 52.3238C46.7941 52.6702 50.5309 53.6108 54.1356 54.7888C57.742 55.9674 61.2441 57.3928 63.7876 58.7213C65.0555 59.3836 66.1084 60.0337 66.8183 60.6295C67.1713 60.9258 67.4648 61.2294 67.6527 61.5357C67.8392 61.8397 67.9634 62.2189 67.8292 62.6083L66.8831 62.2838ZM38.3265 54.1475C38.2855 54.2228 38.2464 54.396 38.3804 54.7487C38.5129 55.0974 38.7902 55.5504 39.2545 56.1069C40.1804 57.2167 41.7736 58.6485 44.1477 60.3664C48.8896 63.7977 56.6681 68.3143 68.2246 73.6289L67.8056 74.5367C56.2162 69.207 48.3742 64.6592 43.5603 61.1759C41.1564 59.4365 39.4879 57.9484 38.4856 56.7471C37.9858 56.148 37.6325 55.5977 37.4449 55.104C37.2589 54.6145 37.2103 54.1065 37.4475 53.6706L38.3265 54.1475ZM67.7964 74.5324C63.1785 72.2935 57.8817 70.9104 53.5767 70.581C51.4217 70.4161 49.5456 70.5177 48.1387 70.889C46.7144 71.2648 45.8915 71.8809 45.6155 72.6474L44.674 72.3098C45.1177 71.0777 46.3452 70.3287 47.8839 69.9227C49.4399 69.5121 51.4393 69.4151 53.6539 69.5845C58.088 69.9238 63.5067 71.3414 68.2338 73.6332L67.7964 74.5324ZM45.6155 72.6474C45.6368 72.5882 45.5984 72.5675 45.6451 72.639C45.6981 72.7203 45.816 72.8436 46.0373 73.0061C46.4754 73.328 47.1876 73.7103 48.1661 74.1617C50.1157 75.0611 52.9876 76.1751 56.5076 77.5765C63.5294 80.3722 73.0488 84.2804 82.5835 89.7875L82.0821 90.6528C72.6141 85.1841 63.1517 81.2979 56.1365 78.5049C52.6379 77.112 49.7273 75.9831 47.746 75.0691C46.7591 74.6138 45.9687 74.1968 45.4441 73.8114C45.184 73.6204 44.9554 73.4131 44.8066 73.185C44.6514 72.9471 44.5557 72.6381 44.674 72.3098L45.6155 72.6474Z" fill="#152026"/>
<path d="M25.4883 29.8866L49.6175 24.2988" stroke="#152026" stroke-linecap="round"/>
</svg>
