<svg width="309" height="309" viewBox="0 0 309 309" fill="none" xmlns="http://www.w3.org/2000/svg">
<path d="M81.4431 139.758H254.022C258.845 139.758 262.755 143.668 262.755 148.49V205.924M54.5156 201.726V213.649C54.5156 218.472 58.4254 222.382 63.2482 222.382H68.0917C70.5672 222.382 72.9265 223.432 74.5826 225.273L84.0721 235.817L93.2182 225.364C94.8764 223.469 97.272 222.382 99.7902 222.382H162.33" stroke="#152026" stroke-width="1.5" stroke-linecap="round" stroke-linejoin="round"/>
<path d="M92.1445 147.146H243.286C248.109 147.146 252.018 151.056 252.018 155.879V186.107M101.885 214.32H186.188" stroke="#152026" stroke-width="1.5" stroke-linecap="round"/>
<path d="M101.961 107.208C100.191 113.353 101.999 116.327 107.949 118.041C101.906 116.3 98.8532 117.998 97.116 124.028C98.8332 118.067 97.1794 114.939 91.1476 113.201C97.2941 114.972 100.099 113.561 101.961 107.208Z" stroke="#152026" stroke-width="1.5" stroke-miterlimit="10" stroke-linecap="round" stroke-linejoin="round"/>
<path d="M107.879 118.034L110.604 118.819" stroke="#152026" stroke-width="1.5" stroke-miterlimit="10" stroke-linecap="round" stroke-linejoin="round"/>
<path d="M88.5 112.455L91.225 113.24" stroke="#152026" stroke-width="1.5" stroke-miterlimit="10" stroke-linecap="round" stroke-linejoin="round"/>
<path d="M97.1523 123.96L96.3673 126.685" stroke="#152026" stroke-width="1.5" stroke-miterlimit="10" stroke-linecap="round" stroke-linejoin="round"/>
<path d="M102.738 104.589L101.953 107.314" stroke="#152026" stroke-width="1.5" stroke-miterlimit="10" stroke-linecap="round" stroke-linejoin="round"/>
<path d="M126.896 79.1785C132.634 90.2719 155.16 113.397 181.218 114.371C196.266 116.284 225.594 113.071 222.531 84.9164C221.384 69.6153 194.607 42.8381 165.152 39.0129C124.985 33.7966 112.284 59.2871 118.48 79.1785C125.75 102.512 152.529 120.492 181.218 123.552C186.445 124.317 199.041 124.317 207.61 118.197" stroke="#152026" stroke-width="1.5" stroke-linecap="round"/>
<path d="M182.908 92.9635L155.03 63.0753C156.428 60.9504 161.441 57.3846 165.915 55.8452C173.185 53.3442 183.578 61.0326 180.069 71.9115C177.262 80.6146 168.871 83.6467 165.915 85.2999M171.579 92.5354L184.661 81.4746" stroke="#152026" stroke-width="1.5" stroke-linecap="round"/>
<path d="M270.572 260.538C246.856 295.731 194.066 285.02 178.765 268.189C165.762 253.884 163.501 223.784 195.989 208.514C219.812 197.317 249.534 202.776 260.769 218.58C282.439 249.062 252.976 272.397 231.555 276.222C218.166 277.369 200.964 276.222 188.536 265.799" stroke="#152026" stroke-width="1.5" stroke-linecap="round"/>
<path d="M231.951 255.923L204.073 226.035C205.471 223.91 210.484 220.345 214.958 218.805C222.228 216.304 232.621 223.993 229.112 234.871C226.305 243.575 217.914 246.607 214.958 248.26M220.622 255.495L233.704 244.435" stroke="#152026" stroke-width="1.5" stroke-linecap="round"/>
<path d="M46.4844 134.463C37.5924 138.597 18.6613 160.53 15.0427 179.566C12.7053 191.863 11.1277 215.068 33.0369 214.053C44.9145 213.928 67.1176 193.298 71.7558 169.232C78.0808 136.413 59.1298 124.58 43.4197 128.62C24.9908 133.36 9.57934 154.463 5.57545 177.94" stroke="#152026" stroke-width="1.5" stroke-linecap="round"/>
<path d="M35.7652 186.45L47.1644 157.788C49.0653 158.056 53.1152 160.327 55.6088 162.883C59.6601 167.036 57.7671 176.607 49.2127 177.722C42.3692 178.614 37.5937 173.867 35.5124 172.384M32.4027 178.582L44.1691 183.94" stroke="#152026" stroke-width="1.5" stroke-linecap="round" stroke-linejoin="round"/>
<path d="M92.1406 174.02V189.47" stroke="#152026" stroke-width="1.5" stroke-linecap="round"/>
<path d="M99.5234 181.407L84.0734 181.407" stroke="#152026" stroke-width="1.5" stroke-linecap="round"/>
<path d="M113.071 179.482C120.357 173.394 120.022 170.707 121.528 163.937C121.649 163.541 122.242 163.65 122.237 164.061L121.94 199.067" stroke="#152026" stroke-width="1.5" stroke-miterlimit="10" stroke-linecap="round"/>
<path d="M148.548 191.994C150.813 187.544 152.92 181.432 152.279 173.51C151.865 168.393 149.69 161.04 142.4 163.435C138.406 164.564 133.951 174.154 134.74 184.175C135.815 197.84 143.364 200.838 148.267 197.8C154.019 194.235 157.154 184.418 156.208 174.69" stroke="#152026" stroke-width="1.5" stroke-linecap="round"/>
<path d="M179.443 191.994C181.708 187.544 183.815 181.432 183.174 173.51C182.76 168.393 180.584 161.04 173.294 163.435C169.301 164.564 164.845 174.155 165.634 184.175C166.71 197.84 174.259 200.838 179.162 197.8C182.235 195.896 185.176 190.186 185.848 182.461" stroke="#152026" stroke-width="1.5" stroke-linecap="round"/>
<path d="M208.646 191.994C210.911 187.544 213.018 181.432 212.377 173.51C211.963 168.393 209.787 161.04 202.498 163.435C198.504 164.564 194.048 174.154 194.837 184.175C195.913 197.84 203.462 200.838 208.365 197.8C214.117 194.235 217.251 184.418 216.306 174.69" stroke="#152026" stroke-width="1.5" stroke-linecap="round"/>
</svg>
