<svg width="153" height="125" viewBox="0 0 153 125" fill="none" xmlns="http://www.w3.org/2000/svg">
<path d="M43.7617 34.3242L33.5588 39.1406" stroke="#152026" stroke-miterlimit="10" stroke-linecap="round"/>
<path d="M93.6989 68.4263C93.6989 68.4263 82.7034 83.6292 79.4739 77.4497C76.2463 71.2675 89.7337 60.6348 91.0673 61.8803C93.8375 64.4515 75.0743 76.5546 71.0696 73.5326C67.0669 70.508 83.9213 51.0657 86.9041 53.1157C89.8868 55.1658 71.393 67.5191 68.3763 64.7557C65.3577 61.9948 83.3251 38.8088 85.5845 43.2642C88.2614 49.9419 52.7947 49.6555 51.5944 45.6896C50.3922 41.7262 86.9103 32.4462 98.2283 38.4277C116.251 46.4463 114.839 58.0492 122.627 95.6498" stroke="#152026" stroke-miterlimit="10" stroke-linecap="round"/>
<path d="M67.0141 38.6605L55.0659 28.3027C52.7947 26.533 49.8783 25.9068 47.0517 26.5631C36.2337 30.1662 28.5011 33.9026 18.6681 39.2331C15.7072 41.2109 15.2276 45.5436 17.7236 47.9576L26.9583 56.2807M91.0887 83.7969L80.0443 88.8346C73.1978 91.9574 65.1347 90.6883 59.488 85.599L57.7179 84.0037" stroke="#152026" stroke-miterlimit="10" stroke-linecap="round"/>
<path d="M76.3001 99.1892C71.6926 101.902 58.8665 105.451 44.4218 97.9466C26.3658 88.5665 24.1558 84.9334 23.9504 72.7403C23.745 60.5472 28.1513 50.406 31.2121 61.2338C34.2729 72.0616 31.5037 84.4544 30.1863 80.5246C28.8484 76.5336 31.5001 66.2222 33.8618 58.7181C36.2234 51.214 40.5449 57.5731 41.9192 69.649C43.2935 81.7248 38.9915 91.5431 38.5576 83.1592C38.1237 74.7752 42.8589 59.9325 47.1886 62.1038C51.5184 64.275 52.7773 93.6738 49.0508 90.6133C46.0696 88.1649 51.3722 75.8723 54.3962 70.0321" stroke="#152026" stroke-linecap="round"/>
</svg>
