<svg width="95" height="92" viewBox="0 0 95 92" fill="none" xmlns="http://www.w3.org/2000/svg">
<path d="M6.46199 51.2577C25.5777 47.9359 34.744 36.7042 37.7533 33.0258C46.8493 21.9075 47.1799 6.49685 49.8279 5.44059C52.3106 4.45023 57.3888 11.3459 55.2365 29.7056C55.0136 31.6074 56.6312 33.2483 58.532 33.0174C75.7597 30.9249 87.1446 32.2141 85.9097 37.4519C83.9364 45.8211 48.3017 57.5875 45.9304 53.5956C44.2452 50.7589 54.8495 42.9841 68.0073 39.8035" stroke="#152026" stroke-linecap="round"/>
<path d="M85.1698 42.7527C99.681 54.6867 50.4166 65.632 50.3201 63.2643C50.2235 60.8966 87.6113 48.6484 90.6646 56.2535C94.861 66.7058 49.1452 77.3598 49.6466 74.4487C50.1952 71.2638 87.6464 62.4404 87.9421 66.8598C88.2378 71.2793 62.3162 88.4769 20.423 87.9947" stroke="#152026" stroke-linecap="round"/>
</svg>
