<svg width="148" height="37" viewBox="0 0 148 37" fill="none" xmlns="http://www.w3.org/2000/svg">
<g clip-path="url(#clip0_903_2189)">
<path d="M108.114 1.4165C105.522 1.4165 103.791 3.09099 103.781 5.69631C103.781 8.22575 105.552 9.95589 108.104 9.9483C110.608 9.9483 112.29 8.22575 112.293 5.68367C112.295 3.14158 110.626 1.42156 108.114 1.4165Z" fill="#F4F9F4"/>
<path d="M139.216 11.6354C138.477 14.1142 137.741 16.5754 137.008 19.0391H136.428L134.026 11.6152C134.009 11.5614 133.976 11.5145 133.93 11.482C133.884 11.4495 133.829 11.4332 133.773 11.4356H124.836C124.8 11.4359 124.764 11.4284 124.73 11.4135C124.697 11.3987 124.667 11.3768 124.643 11.3494C124.619 11.3221 124.602 11.2898 124.591 11.2549C124.581 11.22 124.578 11.1833 124.583 11.1472C124.679 10.1708 125.155 9.57643 125.969 9.45248C126.347 9.40018 126.731 9.4113 127.105 9.48537C127.533 9.58077 127.955 9.69983 128.37 9.84202C128.402 9.85297 128.436 9.85731 128.47 9.85479C128.504 9.85228 128.537 9.84295 128.567 9.82736C128.597 9.81178 128.624 9.79026 128.646 9.76409C128.668 9.73793 128.684 9.70765 128.693 9.67507L130.464 4.39108C130.476 4.35843 130.482 4.32363 130.48 4.28885C130.478 4.25407 130.469 4.22006 130.453 4.18895C130.437 4.15784 130.415 4.13031 130.389 4.10807C130.362 4.08583 130.331 4.06937 130.297 4.05972C129.892 3.92566 129.091 3.67777 128.663 3.57913C126.721 3.10028 124.699 3.03993 122.732 3.40207C119.276 4.06731 116.987 6.37416 116.325 9.80913C116.233 10.2796 116.173 10.7577 116.102 11.2585C116.095 11.3207 116.065 11.3781 116.019 11.4196C115.972 11.4612 115.912 11.484 115.849 11.4836H113.987C113.92 11.4836 113.856 11.5103 113.808 11.5577C113.761 11.6051 113.734 11.6695 113.734 11.7366V16.841C113.734 16.9081 113.761 16.9724 113.808 17.0198C113.856 17.0673 113.92 17.0939 113.987 17.0939H115.849C115.916 17.0939 115.98 17.1206 116.028 17.168C116.075 17.2154 116.102 17.2798 116.102 17.3469V28.7293C116.102 28.7964 116.129 28.8608 116.176 28.9082C116.223 28.9556 116.288 28.9823 116.355 28.9823H124.267C124.334 28.9823 124.398 28.9556 124.446 28.9082C124.493 28.8608 124.52 28.7964 124.52 28.7293V17.3469C124.52 17.2798 124.547 17.2154 124.594 17.168C124.641 17.1206 124.706 17.0939 124.773 17.0939H127.231C127.28 17.0929 127.327 17.1056 127.369 17.1307C127.41 17.1558 127.443 17.1922 127.464 17.2356L132.558 27.3027C132.577 27.3384 132.586 27.3778 132.586 27.4178C132.586 27.4578 132.577 27.4973 132.558 27.5329C131.246 30.2546 129.956 32.9333 128.65 35.6448C128.629 35.6843 128.618 35.729 128.619 35.774C128.621 35.8191 128.634 35.863 128.658 35.9012C128.682 35.9394 128.716 35.9704 128.756 35.9912C128.796 36.0119 128.841 36.0216 128.886 36.0192H136.55C136.599 36.0201 136.648 36.0064 136.69 35.9799C136.732 35.9533 136.765 35.9151 136.785 35.8699C140.52 27.8449 144.25 19.824 147.973 11.8074C147.994 11.7679 148.004 11.7236 148.003 11.6789C148.001 11.6342 147.987 11.5908 147.963 11.553C147.94 11.5152 147.906 11.4844 147.866 11.4638C147.827 11.4432 147.782 11.4334 147.738 11.4356H139.466C139.408 11.4348 139.351 11.4544 139.305 11.4908C139.26 11.5272 139.228 11.5783 139.216 11.6354Z" fill="#F4F9F4"/>
<path d="M99.1535 23.2835C98.2707 23.458 97.5549 23.0862 97.35 22.2059C97.1755 21.4471 97.2008 18.7052 97.1982 17.3418C97.1982 17.2748 97.2249 17.2104 97.2723 17.163C97.3198 17.1155 97.3841 17.0889 97.4512 17.0889H101.233C101.3 17.0889 101.364 17.0622 101.412 17.0148C101.459 16.9674 101.486 16.903 101.486 16.8359V11.7113C101.486 11.6442 101.459 11.5799 101.412 11.5324C101.364 11.485 101.3 11.4584 101.233 11.4584H97.4385C97.3715 11.4584 97.3071 11.4317 97.2597 11.3843C97.2122 11.3368 97.1856 11.2725 97.1856 11.2054V7.51497C97.1856 7.44788 97.1589 7.38355 97.1115 7.33611C97.0641 7.28867 96.9997 7.26202 96.9327 7.26202H89.3646C89.2975 7.26202 89.2332 7.28867 89.1857 7.33611C89.1383 7.38355 89.1116 7.44788 89.1116 7.51497V11.2054C89.1116 11.2725 89.085 11.3368 89.0375 11.3843C88.9901 11.4317 88.9258 11.4584 88.8587 11.4584L83.5064 11.4432C83.4393 11.4432 83.375 11.4165 83.3275 11.3691C83.2801 11.3217 83.2535 11.2573 83.2535 11.1902V7.51497C83.2535 7.44788 83.2268 7.38355 83.1794 7.33611C83.1319 7.28867 83.0676 7.26202 83.0005 7.26202H75.4021C75.335 7.26202 75.2706 7.28867 75.2232 7.33611C75.1758 7.38355 75.1491 7.44788 75.1491 7.51497V11.2054C75.1491 11.2725 75.1225 11.3368 75.075 11.3843C75.0276 11.4317 74.9633 11.4584 74.8962 11.4584H73.0674C73.0003 11.4584 72.936 11.485 72.8885 11.5324C72.8411 11.5799 72.8145 11.6442 72.8145 11.7113V16.8435C72.8145 16.9106 72.8411 16.975 72.8885 17.0224C72.936 17.0698 73.0003 17.0965 73.0674 17.0965H74.9088C74.9759 17.0965 75.0403 17.1231 75.0877 17.1706C75.1351 17.218 75.1618 17.2823 75.1618 17.3494V17.6302C75.1618 19.0366 75.1415 20.4455 75.1618 21.8518C75.1645 22.6429 75.2271 23.4327 75.349 24.2143C75.7764 26.7134 77.1449 28.4435 79.649 29.1442C81.3688 29.6203 83.1769 29.6827 84.9254 29.3263C85.9533 29.1267 86.9502 28.7916 87.8899 28.3297C87.9455 28.3042 87.99 28.2594 88.0152 28.2036C88.0403 28.1478 88.0443 28.0847 88.0265 28.0262C87.5687 26.3593 87.1184 24.7152 86.6758 23.109C86.6673 23.0746 86.6516 23.0424 86.6299 23.0144C86.6081 22.9865 86.5807 22.9634 86.5495 22.9467C86.5182 22.93 86.4839 22.9201 86.4485 22.9175C86.4132 22.915 86.3777 22.9199 86.3444 22.9319C85.9667 23.0659 85.5816 23.1782 85.191 23.2683C84.3108 23.4428 83.5949 23.071 83.39 22.1908C83.213 21.4319 83.2408 18.69 83.2383 17.3267C83.2383 17.2596 83.2649 17.1952 83.3124 17.1478C83.3598 17.1004 83.4241 17.0737 83.4912 17.0737L88.8511 17.0965C88.9182 17.0965 88.9825 17.1231 89.03 17.1706C89.0774 17.218 89.104 17.2823 89.104 17.3494V17.6302C89.104 19.0366 89.0838 20.4455 89.104 21.8518C89.108 22.6429 89.1706 23.4325 89.2912 24.2143C89.7187 26.7134 91.0871 28.4435 93.5913 29.1442C95.3102 29.6203 97.1174 29.6827 98.8651 29.3263C99.893 29.1267 100.89 28.7916 101.83 28.3297C101.885 28.3042 101.93 28.2594 101.955 28.2036C101.98 28.1478 101.984 28.0847 101.966 28.0262C101.508 26.3593 101.058 24.7152 100.618 23.109C100.61 23.0743 100.594 23.0418 100.572 23.0136C100.55 22.9854 100.522 22.9622 100.491 22.9455C100.459 22.9288 100.425 22.9189 100.389 22.9166C100.353 22.9142 100.318 22.9195 100.284 22.9319C99.9142 23.0703 99.5367 23.1877 99.1535 23.2835V23.2835Z" fill="#F4F9F4"/>
<path d="M49.9225 4.45435H42.0711C41.9272 4.45435 41.8105 4.57099 41.8105 4.71488V28.7471C41.8105 28.891 41.9272 29.0076 42.0711 29.0076H49.9225C50.0663 29.0076 50.183 28.891 50.183 28.7471V4.71488C50.183 4.57099 50.0663 4.45435 49.9225 4.45435Z" fill="#F4F9F4"/>
<path d="M111.981 11.4912H104.114C103.97 11.4912 103.854 11.6079 103.854 11.7517V28.7496C103.854 28.8935 103.97 29.0101 104.114 29.0101H111.981C112.124 29.0101 112.241 28.8935 112.241 28.7496V11.7517C112.241 11.6079 112.124 11.4912 111.981 11.4912Z" fill="#F4F9F4"/>
<path d="M68.515 12.6624C66.4914 11.3142 64.2023 10.9095 62.0194 10.8917C59.8365 10.874 57.5524 11.3142 55.5238 12.6624C53.3839 14.0839 52.1697 16.1074 51.7903 18.6192C51.7096 19.1518 51.6648 19.6893 51.6562 20.2279C51.6649 20.7657 51.7097 21.3023 51.7903 21.8341C52.1697 24.3458 53.3839 26.3694 55.5238 27.7909C57.5473 29.1391 59.8238 29.5438 62.0194 29.5615C64.2149 29.5792 66.4838 29.1391 68.515 27.7909C70.6549 26.3694 71.869 24.3458 72.2484 21.8341C72.3282 21.3023 72.3722 20.7656 72.3799 20.2279C72.3723 19.6893 72.3283 19.1519 72.2484 18.6192C71.869 16.1074 70.6549 14.0839 68.515 12.6624ZM64.0556 20.2355V20.3493C64.091 21.101 63.925 21.8484 63.575 22.5145C63.42 22.7926 63.1936 23.0242 62.919 23.1853C62.6445 23.3465 62.3319 23.4313 62.0136 23.4311C61.6952 23.4308 61.3828 23.3455 61.1085 23.1839C60.8342 23.0223 60.6081 22.7903 60.4536 22.512C60.106 21.845 59.9402 21.0982 59.973 20.3468C59.973 20.3088 59.973 20.2709 59.973 20.233C59.973 20.195 59.973 20.1546 59.973 20.1166C59.9415 19.3677 60.1073 18.6237 60.4536 17.959C60.6089 17.6826 60.835 17.4526 61.1086 17.2925C61.3822 17.1323 61.6935 17.048 62.0105 17.048C62.3275 17.048 62.6388 17.1323 62.9124 17.2925C63.186 17.4526 63.4121 17.6826 63.5674 17.959C63.9175 18.6251 64.0834 19.3726 64.048 20.1242L64.0556 20.2355Z" fill="#F4F9F4"/>
<path d="M35.3252 15.6066C34.9614 15.1762 34.5027 14.836 33.9853 14.6126C33.4679 14.3892 32.9058 14.2888 32.343 14.3192C31.5614 14.3596 27.3069 14.9439 23.6417 15.685C23.6189 15.6908 23.5948 15.6882 23.5737 15.6776C23.5526 15.6671 23.536 15.6494 23.5268 15.6278C23.5177 15.6061 23.5166 15.5818 23.5237 15.5594C23.5309 15.537 23.5458 15.5178 23.5658 15.5055C26.6695 13.406 30.0994 10.783 30.7469 10.0646C31.3971 9.34461 31.7356 8.39631 31.6881 7.42731C31.6407 6.45832 31.2114 5.54758 30.494 4.89446C29.7744 4.24441 28.8265 3.90604 27.8579 3.95345C26.8893 4.00086 25.979 4.43019 25.3263 5.14741C24.8457 5.67859 23.2699 7.72743 21.7067 9.94069C21.6761 9.98515 21.6312 10.0177 21.5794 10.033C21.5277 10.0483 21.4722 10.0453 21.4224 10.0245C21.3726 10.0038 21.3314 9.96651 21.3058 9.91901C21.2802 9.87151 21.2717 9.81665 21.2818 9.76363C21.8205 6.85225 22.1822 4.30004 22.162 3.55386C22.1434 2.91292 21.9573 2.28802 21.6223 1.74131C21.2873 1.19459 20.8149 0.745119 20.2523 0.437591C19.9867 0.288108 19.7015 0.176572 19.4049 0.106235C18.856 -0.0305214 18.2829 -0.0384634 17.7305 0.0830294C17.178 0.204522 16.6611 0.452157 16.2203 0.806572C15.7794 1.16099 15.4265 1.61257 15.1891 2.12603C14.9517 2.63948 14.8363 3.20088 14.8519 3.76633C14.8722 4.52516 15.3578 8.85809 16.0129 12.5207C16.0184 12.5439 16.0153 12.5682 16.0043 12.5893C15.9932 12.6104 15.9749 12.6268 15.9527 12.6354C15.9305 12.644 15.9059 12.6443 15.8836 12.6363C15.8612 12.6282 15.8424 12.6123 15.8308 12.5915C13.8401 9.44492 11.1893 5.72665 10.4735 5.03864C10.1301 4.70182 9.72255 4.43754 9.27495 4.26155C8.82736 4.08555 8.34892 4.00144 7.86814 4.01422C7.14426 4.02761 6.44062 4.25538 5.84621 4.66872C5.2518 5.08206 4.79333 5.6624 4.5288 6.33634C4.26426 7.01028 4.20553 7.74753 4.36005 8.45485C4.51457 9.16217 4.87539 9.80777 5.39688 10.31C5.97865 10.8766 8.25767 12.7155 10.5974 14.4684C10.6414 14.4991 10.6729 14.5446 10.6864 14.5965C10.6998 14.6484 10.6943 14.7035 10.6708 14.7517C10.6507 14.8001 10.6146 14.8401 10.5686 14.865C10.5225 14.8898 10.4693 14.8981 10.4178 14.8883C7.36478 14.2913 4.48375 13.8512 3.62627 13.8512H3.57315C3.0267 13.8628 2.48987 13.9972 2.0025 14.2446C1.51513 14.492 1.08973 14.846 0.757885 15.2803C0.423059 15.717 0.190398 16.2231 0.0770219 16.7615C-0.0363539 17.3 -0.0275586 17.857 0.102761 18.3915C0.204867 18.8294 0.392242 19.2428 0.654178 19.6082C1.00055 20.1033 1.46409 20.5049 2.00344 20.7772C2.54278 21.0495 3.14115 21.1841 3.74515 21.1689C4.75693 21.1461 9.1278 20.663 12.7626 20.0104C12.7858 20.0049 12.8101 20.008 12.8312 20.0191C12.8523 20.0301 12.8686 20.0484 12.8773 20.0706C12.8859 20.0928 12.8862 20.1174 12.8781 20.1398C12.8701 20.1622 12.8542 20.1809 12.8334 20.1925C9.69945 22.1832 6.01659 24.8214 5.34629 25.5043C4.72358 26.2131 4.39861 27.135 4.4392 28.0775C4.47979 29.0201 4.8828 29.9106 5.56413 30.5633C6.24546 31.2159 7.15249 31.5802 8.09596 31.5802C9.03942 31.5802 9.94644 31.2158 10.6278 30.5632C11.121 30.0573 12.6741 28.1425 14.3207 25.9622C14.3524 25.9178 14.3989 25.8863 14.4518 25.8733C14.5047 25.8603 14.5605 25.8667 14.6091 25.8913C14.6572 25.9114 14.6966 25.9478 14.7207 25.994C14.7447 26.0402 14.7518 26.0934 14.7406 26.1443C14.1159 29.0405 13.6808 31.58 13.6808 32.3237C13.7059 33.2774 14.1024 34.1837 14.7858 34.8494C15.4692 35.5151 16.3856 35.8876 17.3396 35.8876C18.2937 35.8876 19.21 35.5151 19.8935 34.8494C20.5769 34.1837 20.9734 33.2774 20.9985 32.3237C20.9985 31.5345 20.6241 27.0928 20.0702 23.3745C20.0658 23.3513 20.07 23.3272 20.082 23.3068C20.0939 23.2864 20.1128 23.2709 20.1352 23.2632C20.1576 23.2556 20.182 23.2562 20.2039 23.265C20.2259 23.2739 20.2439 23.2903 20.2548 23.3113C22.1721 26.5515 24.5953 30.156 25.2934 30.8693C25.9723 31.5626 26.8989 31.9578 27.8692 31.968C28.8395 31.9782 29.7741 31.6025 30.4674 30.9236C31.1607 30.2448 31.556 29.3182 31.5662 28.3479C31.5764 27.3776 31.2007 26.443 30.5218 25.7497C29.9704 25.1856 27.5345 23.0811 24.957 21.0626C24.9145 21.0313 24.8841 20.9862 24.8712 20.935C24.8583 20.8837 24.8636 20.8296 24.8862 20.7819C24.9054 20.7329 24.9414 20.6923 24.9877 20.6673C25.034 20.6423 25.0876 20.6345 25.1391 20.6453C28.4451 21.2144 31.8498 21.6571 32.7275 21.5963C33.3649 21.5609 33.9821 21.3605 34.5187 21.0146C35.0552 20.6687 35.4927 20.1893 35.7881 19.6234C35.9327 19.353 36.0383 19.0634 36.1017 18.7634C36.2231 18.2129 36.2161 17.6419 36.0815 17.0945C35.9468 16.5471 35.6881 16.038 35.3252 15.6066V15.6066Z" fill="#0B841C"/>
</g>
<defs>
<clipPath id="clip0_903_2189">
<rect width="148" height="36.0167" fill="white"/>
</clipPath>
</defs>
</svg>
