<svg width="108" height="27" viewBox="0 0 108 27" fill="none" xmlns="http://www.w3.org/2000/svg">
<g clip-path="url(#clip0_903_2311)">
<path d="M78.8943 1.03369C77.0023 1.03369 75.7398 2.25562 75.7324 4.1568C75.7324 6.0026 77.0245 7.26514 78.8869 7.2596C80.7143 7.2596 81.9417 6.0026 81.9436 4.14757C81.9454 2.29253 80.7272 1.03738 78.8943 1.03369Z" fill="#152026"/>
<path d="M101.589 8.49072C101.05 10.2996 100.513 12.0956 99.9774 13.8934H99.5547L97.8012 8.47595C97.7893 8.43671 97.7648 8.40253 97.7314 8.37881C97.6979 8.35508 97.6576 8.34315 97.6166 8.3449H91.0954C91.0688 8.34516 91.0425 8.33968 91.0182 8.32883C90.994 8.31798 90.9723 8.30202 90.9548 8.28204C90.9373 8.26207 90.9243 8.23854 90.9167 8.21307C90.9091 8.1876 90.9071 8.16079 90.9108 8.13448C90.9809 7.42199 91.328 6.98823 91.9223 6.89778C92.198 6.85962 92.4781 6.86773 92.7511 6.92178C93.0633 6.9914 93.3714 7.07828 93.674 7.18204C93.6975 7.19003 93.7223 7.1932 93.7471 7.19136C93.7718 7.18953 93.7959 7.18272 93.818 7.17134C93.8401 7.15997 93.8596 7.14427 93.8754 7.12518C93.8913 7.10608 93.9031 7.08399 93.9102 7.06022L95.2023 3.20433C95.2112 3.18051 95.215 3.15511 95.2136 3.12973C95.2122 3.10435 95.2056 3.07953 95.1942 3.05683C95.1827 3.03413 95.1667 3.01403 95.1472 2.99781C95.1276 2.98158 95.1049 2.96957 95.0805 2.96252C94.7852 2.8647 94.2 2.68381 93.8881 2.61182C92.4708 2.26239 90.9953 2.21835 89.5597 2.48261C87.0383 2.96806 85.3678 4.65144 84.8842 7.15804C84.8178 7.50136 84.7735 7.85022 84.7218 8.21569C84.7168 8.26105 84.6952 8.30293 84.6611 8.33327C84.627 8.36361 84.5829 8.38024 84.5372 8.37997H83.1787C83.1298 8.37997 83.0828 8.39941 83.0482 8.43403C83.0136 8.46865 82.9941 8.51559 82.9941 8.56455V12.2894C82.9941 12.3383 83.0136 12.3853 83.0482 12.4199C83.0828 12.4545 83.1298 12.474 83.1787 12.474H84.5372C84.5862 12.474 84.6331 12.4934 84.6677 12.528C84.7024 12.5626 84.7218 12.6096 84.7218 12.6585V20.9647C84.7218 21.0136 84.7413 21.0606 84.7759 21.0952C84.8105 21.1298 84.8574 21.1493 84.9064 21.1493H90.6801C90.729 21.1493 90.776 21.1298 90.8106 21.0952C90.8452 21.0606 90.8647 21.0136 90.8647 20.9647V12.6585C90.8647 12.6096 90.8841 12.5626 90.9187 12.528C90.9533 12.4934 91.0003 12.474 91.0492 12.474H92.8434C92.8786 12.4732 92.9133 12.4825 92.9434 12.5008C92.9735 12.5192 92.9977 12.5457 93.0132 12.5773L96.7306 19.9236C96.7439 19.9496 96.7508 19.9784 96.7508 20.0076C96.7508 20.0368 96.7439 20.0656 96.7306 20.0916C95.7727 22.0777 94.8313 24.0324 93.8789 26.0111C93.863 26.04 93.8552 26.0725 93.8561 26.1054C93.8571 26.1383 93.8668 26.1703 93.8844 26.1982C93.9019 26.226 93.9265 26.2487 93.9557 26.2639C93.9849 26.279 94.0177 26.2861 94.0505 26.2843H99.6433C99.6795 26.2849 99.715 26.275 99.7455 26.2556C99.776 26.2362 99.8002 26.2084 99.815 26.1754C102.541 20.3193 105.262 14.4662 107.979 8.61623C107.994 8.58744 108.002 8.5551 108.001 8.52248C107.999 8.48987 107.99 8.45816 107.972 8.43058C107.955 8.403 107.93 8.38054 107.901 8.36549C107.872 8.35044 107.84 8.34333 107.807 8.3449H101.772C101.729 8.34437 101.687 8.35861 101.654 8.38519C101.621 8.41177 101.598 8.44905 101.589 8.49072Z" fill="#152026"/>
<path d="M72.3552 16.9907C71.711 17.118 71.1886 16.8467 71.0391 16.2043C70.9117 15.6506 70.9302 13.6497 70.9283 12.6549C70.9283 12.6059 70.9478 12.559 70.9824 12.5243C71.017 12.4897 71.064 12.4703 71.1129 12.4703H73.8724C73.9214 12.4703 73.9683 12.4508 74.0029 12.4162C74.0375 12.3816 74.057 12.3346 74.057 12.2857V8.54609C74.057 8.49714 74.0375 8.45019 74.0029 8.41557C73.9683 8.38096 73.9214 8.36151 73.8724 8.36151H71.1037C71.0547 8.36151 71.0078 8.34206 70.9732 8.30745C70.9386 8.27283 70.9191 8.22588 70.9191 8.17693V5.4839C70.9191 5.43494 70.8997 5.38799 70.865 5.35338C70.8304 5.31876 70.7835 5.29932 70.7345 5.29932H65.2119C65.1629 5.29932 65.116 5.31876 65.0814 5.35338C65.0467 5.38799 65.0273 5.43494 65.0273 5.4839V8.17693C65.0273 8.22588 65.0079 8.27283 64.9732 8.30745C64.9386 8.34206 64.8917 8.36151 64.8427 8.36151L60.937 8.35044C60.888 8.35044 60.8411 8.33099 60.8065 8.29637C60.7719 8.26176 60.7524 8.21481 60.7524 8.16585V5.4839C60.7524 5.43494 60.733 5.38799 60.6983 5.35338C60.6637 5.31876 60.6168 5.29932 60.5678 5.29932H55.023C54.9741 5.29932 54.9271 5.31876 54.8925 5.35338C54.8579 5.38799 54.8384 5.43494 54.8384 5.4839V8.17693C54.8384 8.22588 54.819 8.27283 54.7844 8.30745C54.7498 8.34206 54.7028 8.36151 54.6539 8.36151H53.3193C53.2704 8.36151 53.2234 8.38096 53.1888 8.41557C53.1542 8.45019 53.1348 8.49714 53.1348 8.54609V12.2912C53.1348 12.3402 53.1542 12.3871 53.1888 12.4218C53.2234 12.4564 53.2704 12.4758 53.3193 12.4758H54.6631C54.712 12.4758 54.759 12.4953 54.7936 12.5299C54.8282 12.5645 54.8477 12.6114 54.8477 12.6604V12.8653C54.8477 13.8915 54.8329 14.9197 54.8477 15.9459C54.8497 16.5232 54.8953 17.0995 54.9843 17.6699C55.2962 19.4936 56.2948 20.7561 58.1221 21.2674C59.3771 21.6148 60.6965 21.6603 61.9725 21.4003C62.7226 21.2546 63.45 21.0101 64.1358 20.673C64.1764 20.6544 64.2088 20.6217 64.2272 20.581C64.2455 20.5403 64.2484 20.4943 64.2355 20.4515C63.9014 19.2352 63.5728 18.0354 63.2498 16.8633C63.2436 16.8382 63.2322 16.8147 63.2163 16.7943C63.2004 16.7739 63.1804 16.7571 63.1576 16.7449C63.1348 16.7327 63.1097 16.7255 63.084 16.7236C63.0582 16.7218 63.0323 16.7253 63.008 16.7341C62.7323 16.8319 62.4513 16.9138 62.1663 16.9796C61.524 17.1069 61.0016 16.8356 60.8521 16.1933C60.7229 15.6395 60.7432 13.6387 60.7413 12.6438C60.7413 12.5948 60.7608 12.5479 60.7954 12.5133C60.83 12.4786 60.877 12.4592 60.9259 12.4592L64.8372 12.4758C64.8861 12.4758 64.9331 12.4953 64.9677 12.5299C65.0023 12.5645 65.0218 12.6114 65.0218 12.6604V12.8653C65.0218 13.8915 65.007 14.9197 65.0218 15.9459C65.0247 16.5232 65.0703 17.0994 65.1584 17.6699C65.4703 19.4936 66.4689 20.7561 68.2962 21.2674C69.5506 21.6148 70.8694 21.6604 72.1447 21.4003C72.8948 21.2546 73.6223 21.0101 74.308 20.673C74.3486 20.6544 74.3811 20.6217 74.3994 20.581C74.4177 20.5403 74.4207 20.4943 74.4077 20.4515C74.0736 19.2352 73.745 18.0354 73.4239 16.8633C73.4177 16.838 73.4062 16.8143 73.3902 16.7937C73.3742 16.7732 73.3541 16.7562 73.331 16.744C73.308 16.7318 73.2827 16.7246 73.2567 16.7229C73.2307 16.7212 73.2046 16.725 73.1802 16.7341C72.9103 16.8351 72.6348 16.9207 72.3552 16.9907V16.9907Z" fill="#152026"/>
<path d="M36.4312 3.25049H30.7018C30.5968 3.25049 30.5117 3.33561 30.5117 3.44061V20.9776C30.5117 21.0826 30.5968 21.1677 30.7018 21.1677H36.4312C36.5362 21.1677 36.6213 21.0826 36.6213 20.9776V3.44061C36.6213 3.33561 36.5362 3.25049 36.4312 3.25049Z" fill="#152026"/>
<path d="M81.7157 8.38574H75.9753C75.8703 8.38574 75.7852 8.47086 75.7852 8.57586V20.9797C75.7852 21.0847 75.8703 21.1698 75.9753 21.1698H81.7157C81.8207 21.1698 81.9059 21.0847 81.9059 20.9797V8.57586C81.9059 8.47086 81.8207 8.38574 81.7157 8.38574Z" fill="#152026"/>
<path d="M49.9976 9.24019C48.521 8.25638 46.8505 7.96105 45.2576 7.94813C43.6647 7.93521 41.9979 8.25638 40.5176 9.24019C38.956 10.2775 38.07 11.7542 37.7931 13.5871C37.7342 13.9757 37.7015 14.3679 37.6953 14.761C37.7016 15.1534 37.7343 15.545 37.7931 15.9331C38.07 17.766 38.956 19.2426 40.5176 20.28C41.9942 21.2638 43.6554 21.5591 45.2576 21.572C46.8597 21.5849 48.5154 21.2638 49.9976 20.28C51.5592 19.2426 52.4452 17.766 52.722 15.9331C52.7803 15.545 52.8123 15.1534 52.818 14.761C52.8124 14.368 52.7803 13.9758 52.722 13.5871C52.4452 11.7542 51.5592 10.2775 49.9976 9.24019ZM46.7435 14.7665V14.8496C46.7693 15.3981 46.6482 15.9435 46.3928 16.4296C46.2797 16.6325 46.1144 16.8015 45.9141 16.9191C45.7138 17.0367 45.4856 17.0986 45.2533 17.0985C45.0211 17.0983 44.793 17.036 44.5929 16.9181C44.3927 16.8001 44.2278 16.6309 44.115 16.4278C43.8613 15.9411 43.7404 15.3961 43.7643 14.8478C43.7643 14.8201 43.7643 14.7924 43.7643 14.7647C43.7643 14.737 43.7643 14.7075 43.7643 14.6798C43.7413 14.1333 43.8623 13.5904 44.115 13.1053C44.2283 12.9036 44.3933 12.7358 44.593 12.6189C44.7926 12.5021 45.0198 12.4405 45.2511 12.4405C45.4825 12.4405 45.7096 12.5021 45.9093 12.6189C46.1089 12.7358 46.2739 12.9036 46.3872 13.1053C46.6427 13.5914 46.7637 14.1368 46.7379 14.6853L46.7435 14.7665Z" fill="#152026"/>
<path d="M25.7773 11.3885C25.5118 11.0745 25.1772 10.8262 24.7996 10.6632C24.422 10.5002 24.0118 10.4269 23.6011 10.449C23.0308 10.4786 19.9261 10.9049 17.2515 11.4458C17.2349 11.4499 17.2173 11.448 17.2019 11.4404C17.1865 11.4327 17.1744 11.4198 17.1677 11.404C17.161 11.3881 17.1602 11.3704 17.1654 11.3541C17.1707 11.3377 17.1816 11.3237 17.1962 11.3147C19.461 9.78269 21.9639 7.86859 22.4364 7.34438C22.9109 6.81896 23.1579 6.12695 23.1233 5.41985C23.0887 4.71275 22.7753 4.04815 22.2518 3.57155C21.7267 3.09719 21.035 2.85027 20.3282 2.88486C19.6214 2.91946 18.9571 3.23276 18.4808 3.75613C18.1301 4.14375 16.9802 5.63886 15.8395 7.25394C15.8172 7.28638 15.7844 7.31016 15.7466 7.3213C15.7088 7.33244 15.6684 7.33025 15.632 7.3151C15.5957 7.29996 15.5657 7.27278 15.547 7.23812C15.5283 7.20345 15.5221 7.16342 15.5294 7.12473C15.9226 5.00021 16.1865 3.13779 16.1717 2.59327C16.1582 2.12556 16.0224 1.66955 15.7779 1.2706C15.5334 0.871647 15.1887 0.543653 14.7782 0.319241C14.5843 0.210159 14.3762 0.128767 14.1598 0.0774401C13.7593 -0.0223549 13.3411 -0.0281504 12.9379 0.0605066C12.5348 0.149164 12.1576 0.32987 11.8359 0.588497C11.5142 0.847124 11.2566 1.17666 11.0834 1.55134C10.9102 1.92602 10.826 2.33569 10.8374 2.74832C10.8521 3.30206 11.2065 6.46393 11.6846 9.13666C11.6886 9.15356 11.6863 9.17134 11.6783 9.18672C11.6702 9.2021 11.6568 9.21403 11.6406 9.22033C11.6244 9.22662 11.6065 9.22685 11.5902 9.22098C11.5738 9.2151 11.5602 9.20351 11.5517 9.18834C10.099 6.89216 8.16463 4.17882 7.64227 3.67676C7.39174 3.43098 7.0943 3.23813 6.76768 3.1097C6.44106 2.98127 6.09193 2.91989 5.74109 2.92921C5.21285 2.93898 4.69939 3.10519 4.26563 3.40682C3.83187 3.70845 3.49731 4.13194 3.30427 4.62373C3.11123 5.11553 3.06837 5.65352 3.18113 6.16967C3.29389 6.68582 3.55719 7.15694 3.93773 7.52342C4.36227 7.93689 6.02534 9.27879 7.73271 10.5579C7.76481 10.5804 7.78784 10.6135 7.79765 10.6514C7.80746 10.6893 7.80342 10.7295 7.78624 10.7647C7.77163 10.8 7.74529 10.8292 7.71167 10.8473C7.67805 10.8655 7.6392 10.8715 7.60166 10.8643C5.37377 10.4287 3.2714 10.1076 2.64567 10.1076H2.60691C2.20815 10.116 1.8164 10.2141 1.46075 10.3947C1.10511 10.5752 0.794682 10.8335 0.552524 11.1504C0.308191 11.4691 0.138411 11.8384 0.0556773 12.2313C-0.0270564 12.6242 -0.0206382 13.0307 0.0744597 13.4208C0.14897 13.7403 0.285703 14.042 0.476846 14.3086C0.729605 14.6699 1.06786 14.9629 1.46144 15.1616C1.85501 15.3604 2.29166 15.4586 2.73242 15.4475C3.47074 15.4309 6.6603 15.0783 9.31272 14.6021C9.32963 14.5981 9.3474 14.6003 9.36278 14.6084C9.37816 14.6165 9.3901 14.6299 9.39639 14.6461C9.40269 14.6622 9.40292 14.6802 9.39704 14.6965C9.39116 14.7129 9.37957 14.7265 9.36441 14.735C7.07745 16.1876 4.38996 18.1128 3.90082 18.6112C3.44641 19.1284 3.20927 19.8011 3.23889 20.4889C3.26851 21.1768 3.56259 21.8266 4.05978 22.3028C4.55697 22.7791 5.21886 23.0449 5.90733 23.0449C6.59581 23.0449 7.25768 22.779 7.75486 22.3028C8.11479 21.9336 9.24812 20.5364 10.4497 18.9453C10.4728 18.9129 10.5068 18.8899 10.5454 18.8804C10.584 18.8709 10.6247 18.8756 10.6602 18.8936C10.6952 18.9083 10.724 18.9348 10.7416 18.9685C10.7591 19.0022 10.7643 19.041 10.7561 19.0782C10.3002 21.1916 9.98275 23.0448 9.98275 23.5875C10.0011 24.2834 10.2904 24.9448 10.7891 25.4305C11.2878 25.9163 11.9565 26.1882 12.6527 26.1882C13.3489 26.1882 14.0176 25.9163 14.5163 25.4305C15.015 24.9448 15.3044 24.2834 15.3227 23.5875C15.3227 23.0116 15.0495 19.7704 14.6453 17.057C14.6421 17.04 14.6452 17.0225 14.6539 17.0076C14.6626 16.9927 14.6764 16.9814 14.6927 16.9758C14.7091 16.9702 14.7269 16.9707 14.7429 16.9771C14.7589 16.9835 14.7721 16.9955 14.78 17.0109C16.1791 19.3754 17.9474 22.0056 18.4569 22.5261C18.9523 23.0321 19.6284 23.3205 20.3364 23.3279C21.0445 23.3354 21.7265 23.0612 22.2324 22.5658C22.7384 22.0704 23.0268 21.3943 23.0342 20.6862C23.0417 19.9782 22.7675 19.2962 22.2721 18.7902C21.8697 18.3786 20.0922 16.8429 18.2114 15.3699C18.1803 15.3471 18.1582 15.3142 18.1487 15.2768C18.1393 15.2394 18.1432 15.1999 18.1597 15.1651C18.1737 15.1293 18.1999 15.0997 18.2337 15.0814C18.2675 15.0632 18.3067 15.0575 18.3443 15.0654C20.7567 15.4807 23.2412 15.8037 23.8817 15.7594C24.3468 15.7336 24.7972 15.5873 25.1888 15.3349C25.5803 15.0825 25.8995 14.7327 26.1151 14.3197C26.2206 14.1223 26.2977 13.9111 26.344 13.6921C26.4325 13.2904 26.4275 12.8737 26.3292 12.4743C26.2309 12.0748 26.0421 11.7033 25.7773 11.3885V11.3885Z" fill="#0B841C"/>
</g>
<defs>
<clipPath id="clip0_903_2311">
<rect width="108" height="26.2824" fill="white"/>
</clipPath>
</defs>
</svg>
